solid OpenSCAD_Model
  facet normal -1 0 0
    outer loop
      vertex 0 0 0
      vertex 0 60 10
      vertex 0 60 0
    endloop
  endfacet
  facet normal -1 -0 0
    outer loop
      vertex 0 60 10
      vertex 0 0 0
      vertex 0 0 10
    endloop
  endfacet
  facet normal 0 0 -1
    outer loop
      vertex 10 60 10
      vertex 22.5897 70 10
      vertex 22.5897 60 10
    endloop
  endfacet
  facet normal -0 0 -1
    outer loop
      vertex 22.5897 70 10
      vertex 10 60 10
      vertex 10 70 10
    endloop
  endfacet
  facet normal 0 0 1
    outer loop
      vertex 10 60 10
      vertex 0 60 10
      vertex 10 10 10
    endloop
  endfacet
  facet normal -0 0 1
    outer loop
      vertex 10 10 10
      vertex 22.5897 0 10
      vertex 22.5897 10 10
    endloop
  endfacet
  facet normal 0 0 1
    outer loop
      vertex 10 10 10
      vertex 0 0 10
      vertex 22.5897 0 10
    endloop
  endfacet
  facet normal 0 0 1
    outer loop
      vertex 0 0 10
      vertex 10 10 10
      vertex 0 60 10
    endloop
  endfacet
  facet normal 0 0 -1
    outer loop
      vertex 125 60 10
      vertex 135 10 10
      vertex 125 10 10
    endloop
  endfacet
  facet normal 0 0 -1
    outer loop
      vertex 135 10 10
      vertex 125 60 10
      vertex 135 70 10
    endloop
  endfacet
  facet normal 0 0 -1
    outer loop
      vertex 102.41 70 10
      vertex 125 60 10
      vertex 102.41 60 10
    endloop
  endfacet
  facet normal 0 0 -1
    outer loop
      vertex 125 60 10
      vertex 102.41 70 10
      vertex 135 70 10
    endloop
  endfacet
  facet normal -0 0 1
    outer loop
      vertex 102.41 10 10
      vertex 125 0 10
      vertex 125 10 10
    endloop
  endfacet
  facet normal 0 0 1
    outer loop
      vertex 125 0 10
      vertex 102.41 10 10
      vertex 102.41 0 10
    endloop
  endfacet
  facet normal -0 0 1
    outer loop
      vertex 39.9103 10 10
      vertex 85.0897 0 10
      vertex 85.0897 10 10
    endloop
  endfacet
  facet normal 0 0 1
    outer loop
      vertex 85.0897 0 10
      vertex 39.9103 10 10
      vertex 39.9103 0 10
    endloop
  endfacet
  facet normal 0 0 -1
    outer loop
      vertex 39.9103 60 10
      vertex 85.0897 70 10
      vertex 85.0897 60 10
    endloop
  endfacet
  facet normal -0 0 -1
    outer loop
      vertex 85.0897 70 10
      vertex 39.9103 60 10
      vertex 39.9103 70 10
    endloop
  endfacet
  facet normal 1 -0 0
    outer loop
      vertex 125 10 10
      vertex 125 60 0
      vertex 125 60 10
    endloop
  endfacet
  facet normal 1 0 0
    outer loop
      vertex 125 0 0
      vertex 125 10 10
      vertex 125 0 10
    endloop
  endfacet
  facet normal 1 0 0
    outer loop
      vertex 125 10 10
      vertex 125 0 0
      vertex 125 60 0
    endloop
  endfacet
  facet normal 0 0 -1
    outer loop
      vertex 0 0 0
      vertex 26.25 60 0
      vertex 26.25 0 0
    endloop
  endfacet
  facet normal -0 0 -1
    outer loop
      vertex 26.25 60 0
      vertex 0 0 0
      vertex 0 60 0
    endloop
  endfacet
  facet normal 0 0 -1
    outer loop
      vertex 98.75 0 0
      vertex 125 60 0
      vertex 125 0 0
    endloop
  endfacet
  facet normal -0 0 -1
    outer loop
      vertex 125 60 0
      vertex 98.75 0 0
      vertex 98.75 60 0
    endloop
  endfacet
  facet normal 0 0 -1
    outer loop
      vertex 36.25 0 0
      vertex 88.75 60 0
      vertex 88.75 0 0
    endloop
  endfacet
  facet normal -0 0 -1
    outer loop
      vertex 88.75 60 0
      vertex 36.25 0 0
      vertex 36.25 60 0
    endloop
  endfacet
  facet normal 0 -1 0
    outer loop
      vertex 21.7394 0 8.09017
      vertex 22.5897 0 10
      vertex 0 0 10
    endloop
  endfacet
  facet normal 0 -1 0
    outer loop
      vertex 0 0 10
      vertex 21.3048 0 6.04528
      vertex 21.7394 0 8.09017
    endloop
  endfacet
  facet normal 0 -1 0
    outer loop
      vertex 0 0 10
      vertex 21.3048 0 5
      vertex 21.3048 0 6.04528
    endloop
  endfacet
  facet normal 0 -1 0
    outer loop
      vertex 21.3048 0 5
      vertex 26.25 0 4.375
      vertex 26.25 0 5
    endloop
  endfacet
  facet normal 0 -1 0
    outer loop
      vertex 0 0 0
      vertex 21.3048 0 5
      vertex 0 0 10
    endloop
  endfacet
  facet normal 0 -1 0
    outer loop
      vertex 26.25 0 0
      vertex 21.3048 0 5
      vertex 0 0 0
    endloop
  endfacet
  facet normal 0 -1 0
    outer loop
      vertex 21.3048 0 5
      vertex 26.25 0 0
      vertex 26.25 0 4.375
    endloop
  endfacet
  facet normal 0 -1 0
    outer loop
      vertex 98.75 0 5
      vertex 98.75 0 0
      vertex 103.695 0 5
    endloop
  endfacet
  facet normal 0 -1 0
    outer loop
      vertex 103.261 0 8.09017
      vertex 125 0 10
      vertex 102.41 0 10
    endloop
  endfacet
  facet normal 0 -1 0
    outer loop
      vertex 103.695 0 6.04528
      vertex 125 0 10
      vertex 103.261 0 8.09017
    endloop
  endfacet
  facet normal 0 -1 0
    outer loop
      vertex 103.695 0 5
      vertex 125 0 10
      vertex 103.695 0 6.04528
    endloop
  endfacet
  facet normal 0 -1 0
    outer loop
      vertex 125 0 0
      vertex 103.695 0 5
      vertex 98.75 0 0
    endloop
  endfacet
  facet normal 0 -1 0
    outer loop
      vertex 103.695 0 5
      vertex 125 0 0
      vertex 125 0 10
    endloop
  endfacet
  facet normal 0 -1 0
    outer loop
      vertex 36.25 0 0
      vertex 41.1952 0 5
      vertex 36.25 0 5
    endloop
  endfacet
  facet normal 0 -1 -0
    outer loop
      vertex 41.1952 0 5
      vertex 36.25 0 0
      vertex 83.8048 0 5
    endloop
  endfacet
  facet normal 0 -1 0
    outer loop
      vertex 83.8048 0 5
      vertex 88.75 0 4.375
      vertex 88.75 0 5
    endloop
  endfacet
  facet normal 0 -1 0
    outer loop
      vertex 88.75 0 0
      vertex 83.8048 0 5
      vertex 36.25 0 0
    endloop
  endfacet
  facet normal 0 -1 0
    outer loop
      vertex 83.8048 0 5
      vertex 88.75 0 0
      vertex 88.75 0 4.375
    endloop
  endfacet
  facet normal 0 -1 0
    outer loop
      vertex 40.7606 0 8.09017
      vertex 85.0897 0 10
      vertex 39.9103 0 10
    endloop
  endfacet
  facet normal 0 -1 0
    outer loop
      vertex 84.2394 0 8.09017
      vertex 85.0897 0 10
      vertex 40.7606 0 8.09017
    endloop
  endfacet
  facet normal 0 -1 0
    outer loop
      vertex 41.1952 0 6.04528
      vertex 84.2394 0 8.09017
      vertex 40.7606 0 8.09017
    endloop
  endfacet
  facet normal 0 -1 0
    outer loop
      vertex 41.1952 0 6.04528
      vertex 83.8048 0 6.04528
      vertex 84.2394 0 8.09017
    endloop
  endfacet
  facet normal 0 -1 0
    outer loop
      vertex 41.1952 0 5
      vertex 83.8048 0 6.04528
      vertex 41.1952 0 6.04528
    endloop
  endfacet
  facet normal 0 -1 -0
    outer loop
      vertex 83.8048 0 6.04528
      vertex 41.1952 0 5
      vertex 83.8048 0 5
    endloop
  endfacet
  facet normal 0 1 0
    outer loop
      vertex 125 60 10
      vertex 103.261 60 8.09017
      vertex 102.41 60 10
    endloop
  endfacet
  facet normal 0 1 0
    outer loop
      vertex 125 60 10
      vertex 103.695 60 6.04528
      vertex 103.261 60 8.09017
    endloop
  endfacet
  facet normal 0 1 0
    outer loop
      vertex 125 60 10
      vertex 103.695 60 5
      vertex 103.695 60 6.04528
    endloop
  endfacet
  facet normal 0 1 -0
    outer loop
      vertex 125 60 0
      vertex 103.695 60 5
      vertex 125 60 10
    endloop
  endfacet
  facet normal 0 1 0
    outer loop
      vertex 98.75 60 0
      vertex 103.695 60 5
      vertex 125 60 0
    endloop
  endfacet
  facet normal 0 1 0
    outer loop
      vertex 103.695 60 5
      vertex 98.75 60 0
      vertex 98.75 60 5
    endloop
  endfacet
  facet normal 0 1 0
    outer loop
      vertex 26.25 60 5
      vertex 26.25 60 0.625
      vertex 21.3048 60 5
    endloop
  endfacet
  facet normal 0 1 -0
    outer loop
      vertex 21.7394 60 8.09017
      vertex 10 60 10
      vertex 22.5897 60 10
    endloop
  endfacet
  facet normal 0 1 -0
    outer loop
      vertex 21.3048 60 6.04528
      vertex 10 60 10
      vertex 21.7394 60 8.09017
    endloop
  endfacet
  facet normal 0 1 -0
    outer loop
      vertex 21.3048 60 5
      vertex 10 60 10
      vertex 21.3048 60 6.04528
    endloop
  endfacet
  facet normal 0 1 0
    outer loop
      vertex 0 60 0
      vertex 10 60 10
      vertex 21.3048 60 5
    endloop
  endfacet
  facet normal 0 1 -0
    outer loop
      vertex 26.25 60 0
      vertex 21.3048 60 5
      vertex 26.25 60 0.625
    endloop
  endfacet
  facet normal 0 1 0
    outer loop
      vertex 21.3048 60 5
      vertex 26.25 60 0
      vertex 0 60 0
    endloop
  endfacet
  facet normal 0 1 0
    outer loop
      vertex 10 60 10
      vertex 0 60 0
      vertex 0 60 10
    endloop
  endfacet
  facet normal 0 1 -0
    outer loop
      vertex 88.75 60 0.625
      vertex 83.8048 60 5
      vertex 88.75 60 5
    endloop
  endfacet
  facet normal 0 1 -0
    outer loop
      vertex 88.75 60 0
      vertex 83.8048 60 5
      vertex 88.75 60 0.625
    endloop
  endfacet
  facet normal 0 1 0
    outer loop
      vertex 83.8048 60 5
      vertex 88.75 60 0
      vertex 41.1952 60 5
    endloop
  endfacet
  facet normal 0 1 0
    outer loop
      vertex 41.1952 60 5
      vertex 88.75 60 0
      vertex 36.25 60 0
    endloop
  endfacet
  facet normal 0 1 0
    outer loop
      vertex 41.1952 60 5
      vertex 36.25 60 0
      vertex 36.25 60 5
    endloop
  endfacet
  facet normal 0 1 0
    outer loop
      vertex 85.0897 60 10
      vertex 84.2394 60 8.09017
      vertex 39.9103 60 10
    endloop
  endfacet
  facet normal 0 1 0
    outer loop
      vertex 84.2394 60 8.09017
      vertex 40.7606 60 8.09017
      vertex 39.9103 60 10
    endloop
  endfacet
  facet normal 0 1 -0
    outer loop
      vertex 83.8048 60 6.04528
      vertex 40.7606 60 8.09017
      vertex 84.2394 60 8.09017
    endloop
  endfacet
  facet normal 0 1 0
    outer loop
      vertex 83.8048 60 6.04528
      vertex 41.1952 60 6.04528
      vertex 40.7606 60 8.09017
    endloop
  endfacet
  facet normal 0 1 -0
    outer loop
      vertex 83.8048 60 5
      vertex 41.1952 60 6.04528
      vertex 83.8048 60 6.04528
    endloop
  endfacet
  facet normal 0 1 0
    outer loop
      vertex 41.1952 60 6.04528
      vertex 83.8048 60 5
      vertex 41.1952 60 5
    endloop
  endfacet
  facet normal -1 0 0
    outer loop
      vertex 10 60 10
      vertex 10 70 20
      vertex 10 70 10
    endloop
  endfacet
  facet normal -1 0 0
    outer loop
      vertex 10 10 20
      vertex 10 60 10
      vertex 10 10 10
    endloop
  endfacet
  facet normal -1 0 0
    outer loop
      vertex 10 60 10
      vertex 10 10 20
      vertex 10 70 20
    endloop
  endfacet
  facet normal -0 0 1
    outer loop
      vertex 10 70 20
      vertex 135 10 20
      vertex 135 70 20
    endloop
  endfacet
  facet normal 0 0 1
    outer loop
      vertex 135 10 20
      vertex 10 70 20
      vertex 10 10 20
    endloop
  endfacet
  facet normal 1 -0 0
    outer loop
      vertex 135 10 20
      vertex 135 70 10
      vertex 135 70 20
    endloop
  endfacet
  facet normal 1 0 0
    outer loop
      vertex 135 70 10
      vertex 135 10 20
      vertex 135 10 10
    endloop
  endfacet
  facet normal 0 -1 0
    outer loop
      vertex 91.6709 10 14.7815
      vertex 10 10 20
      vertex 33.3291 10 14.7815
    endloop
  endfacet
  facet normal 0 -1 0
    outer loop
      vertex 10 10 20
      vertex 91.6709 10 14.7815
      vertex 93.75 10 15
    endloop
  endfacet
  facet normal 0 -1 0
    outer loop
      vertex 35.3174 10 14.1355
      vertex 91.6709 10 14.7815
      vertex 33.3291 10 14.7815
    endloop
  endfacet
  facet normal 0 -1 0
    outer loop
      vertex 35.3174 10 14.1355
      vertex 89.6826 10 14.1355
      vertex 91.6709 10 14.7815
    endloop
  endfacet
  facet normal 0 -1 0
    outer loop
      vertex 37.1279 10 13.0902
      vertex 89.6826 10 14.1355
      vertex 35.3174 10 14.1355
    endloop
  endfacet
  facet normal 0 -1 0
    outer loop
      vertex 37.1279 10 13.0902
      vertex 87.8721 10 13.0902
      vertex 89.6826 10 14.1355
    endloop
  endfacet
  facet normal 0 -1 0
    outer loop
      vertex 38.6814 10 11.6913
      vertex 87.8721 10 13.0902
      vertex 37.1279 10 13.0902
    endloop
  endfacet
  facet normal 0 -1 0
    outer loop
      vertex 38.6814 10 11.6913
      vertex 86.3186 10 11.6913
      vertex 87.8721 10 13.0902
    endloop
  endfacet
  facet normal 0 -1 0
    outer loop
      vertex 39.9103 10 10
      vertex 86.3186 10 11.6913
      vertex 38.6814 10 11.6913
    endloop
  endfacet
  facet normal 0 -1 0
    outer loop
      vertex 86.3186 10 11.6913
      vertex 39.9103 10 10
      vertex 85.0897 10 10
    endloop
  endfacet
  facet normal 0 -1 0
    outer loop
      vertex 33.3291 10 14.7815
      vertex 10 10 20
      vertex 31.25 10 15
    endloop
  endfacet
  facet normal 0 -1 0
    outer loop
      vertex 10 10 20
      vertex 29.1709 10 14.7815
      vertex 31.25 10 15
    endloop
  endfacet
  facet normal 0 -1 0
    outer loop
      vertex 10 10 20
      vertex 27.1826 10 14.1355
      vertex 29.1709 10 14.7815
    endloop
  endfacet
  facet normal 0 -1 0
    outer loop
      vertex 10 10 20
      vertex 25.3721 10 13.0902
      vertex 27.1826 10 14.1355
    endloop
  endfacet
  facet normal 0 -1 0
    outer loop
      vertex 10 10 20
      vertex 23.8186 10 11.6913
      vertex 25.3721 10 13.0902
    endloop
  endfacet
  facet normal 0 -1 0
    outer loop
      vertex 22.5897 10 10
      vertex 10 10 20
      vertex 10 10 10
    endloop
  endfacet
  facet normal 0 -1 0
    outer loop
      vertex 10 10 20
      vertex 22.5897 10 10
      vertex 23.8186 10 11.6913
    endloop
  endfacet
  facet normal 0 -1 0
    outer loop
      vertex 10 10 20
      vertex 93.75 10 15
      vertex 135 10 20
    endloop
  endfacet
  facet normal 0 -1 0
    outer loop
      vertex 95.8291 10 14.7815
      vertex 135 10 20
      vertex 93.75 10 15
    endloop
  endfacet
  facet normal 0 -1 0
    outer loop
      vertex 97.8174 10 14.1355
      vertex 135 10 20
      vertex 95.8291 10 14.7815
    endloop
  endfacet
  facet normal 0 -1 0
    outer loop
      vertex 99.6279 10 13.0902
      vertex 135 10 20
      vertex 97.8174 10 14.1355
    endloop
  endfacet
  facet normal 0 -1 0
    outer loop
      vertex 125 10 10
      vertex 99.6279 10 13.0902
      vertex 101.181 10 11.6913
    endloop
  endfacet
  facet normal 0 -1 0
    outer loop
      vertex 125 10 10
      vertex 101.181 10 11.6913
      vertex 102.41 10 10
    endloop
  endfacet
  facet normal 0 -1 0
    outer loop
      vertex 99.6279 10 13.0902
      vertex 125 10 10
      vertex 135 10 20
    endloop
  endfacet
  facet normal 0 -1 -0
    outer loop
      vertex 135 10 20
      vertex 125 10 10
      vertex 135 10 10
    endloop
  endfacet
  facet normal 0 1 -0
    outer loop
      vertex 33.3291 70 14.7815
      vertex 10 70 20
      vertex 91.6709 70 14.7815
    endloop
  endfacet
  facet normal 0 1 0
    outer loop
      vertex 10 70 20
      vertex 33.3291 70 14.7815
      vertex 31.25 70 15
    endloop
  endfacet
  facet normal 0 1 -0
    outer loop
      vertex 89.6826 70 14.1355
      vertex 33.3291 70 14.7815
      vertex 91.6709 70 14.7815
    endloop
  endfacet
  facet normal 0 1 0
    outer loop
      vertex 89.6826 70 14.1355
      vertex 35.3174 70 14.1355
      vertex 33.3291 70 14.7815
    endloop
  endfacet
  facet normal 0 1 -0
    outer loop
      vertex 87.8721 70 13.0902
      vertex 35.3174 70 14.1355
      vertex 89.6826 70 14.1355
    endloop
  endfacet
  facet normal 0 1 0
    outer loop
      vertex 87.8721 70 13.0902
      vertex 37.1279 70 13.0902
      vertex 35.3174 70 14.1355
    endloop
  endfacet
  facet normal 0 1 -0
    outer loop
      vertex 86.3186 70 11.6913
      vertex 37.1279 70 13.0902
      vertex 87.8721 70 13.0902
    endloop
  endfacet
  facet normal 0 1 0
    outer loop
      vertex 86.3186 70 11.6913
      vertex 38.6814 70 11.6913
      vertex 37.1279 70 13.0902
    endloop
  endfacet
  facet normal 0 1 -0
    outer loop
      vertex 85.0897 70 10
      vertex 38.6814 70 11.6913
      vertex 86.3186 70 11.6913
    endloop
  endfacet
  facet normal 0 1 0
    outer loop
      vertex 38.6814 70 11.6913
      vertex 85.0897 70 10
      vertex 39.9103 70 10
    endloop
  endfacet
  facet normal 0 1 0
    outer loop
      vertex 135 70 20
      vertex 93.75 70 15
      vertex 10 70 20
    endloop
  endfacet
  facet normal 0 1 0
    outer loop
      vertex 135 70 20
      vertex 95.8291 70 14.7815
      vertex 93.75 70 15
    endloop
  endfacet
  facet normal 0 1 0
    outer loop
      vertex 135 70 20
      vertex 97.8174 70 14.1355
      vertex 95.8291 70 14.7815
    endloop
  endfacet
  facet normal 0 1 0
    outer loop
      vertex 135 70 20
      vertex 99.6279 70 13.0902
      vertex 97.8174 70 14.1355
    endloop
  endfacet
  facet normal 0 1 0
    outer loop
      vertex 135 70 20
      vertex 101.181 70 11.6913
      vertex 99.6279 70 13.0902
    endloop
  endfacet
  facet normal 0 1 0
    outer loop
      vertex 102.41 70 10
      vertex 135 70 20
      vertex 135 70 10
    endloop
  endfacet
  facet normal 0 1 0
    outer loop
      vertex 135 70 20
      vertex 102.41 70 10
      vertex 101.181 70 11.6913
    endloop
  endfacet
  facet normal 0 1 -0
    outer loop
      vertex 91.6709 70 14.7815
      vertex 10 70 20
      vertex 93.75 70 15
    endloop
  endfacet
  facet normal 0 1 -0
    outer loop
      vertex 29.1709 70 14.7815
      vertex 10 70 20
      vertex 31.25 70 15
    endloop
  endfacet
  facet normal 0 1 -0
    outer loop
      vertex 27.1826 70 14.1355
      vertex 10 70 20
      vertex 29.1709 70 14.7815
    endloop
  endfacet
  facet normal 0 1 -0
    outer loop
      vertex 25.3721 70 13.0902
      vertex 10 70 20
      vertex 27.1826 70 14.1355
    endloop
  endfacet
  facet normal 0 1 -0
    outer loop
      vertex 23.8186 70 11.6913
      vertex 10 70 20
      vertex 25.3721 70 13.0902
    endloop
  endfacet
  facet normal 0 1 -0
    outer loop
      vertex 22.5897 70 10
      vertex 10 70 20
      vertex 23.8186 70 11.6913
    endloop
  endfacet
  facet normal 0 1 0
    outer loop
      vertex 10 70 20
      vertex 22.5897 70 10
      vertex 10 70 10
    endloop
  endfacet
  facet normal 0.309017 0 -0.951057
    outer loop
      vertex 27.1826 10 14.1355
      vertex 29.1709 70 14.7815
      vertex 29.1709 10 14.7815
    endloop
  endfacet
  facet normal 0.309017 0 -0.951057
    outer loop
      vertex 29.1709 70 14.7815
      vertex 27.1826 10 14.1355
      vertex 27.1826 70 14.1355
    endloop
  endfacet
  facet normal 0.5 0 -0.866026
    outer loop
      vertex 25.3721 10 13.0902
      vertex 27.1826 70 14.1355
      vertex 27.1826 10 14.1355
    endloop
  endfacet
  facet normal 0.5 0 -0.866026
    outer loop
      vertex 27.1826 70 14.1355
      vertex 25.3721 10 13.0902
      vertex 25.3721 70 13.0902
    endloop
  endfacet
  facet normal 1 -0 0
    outer loop
      vertex 21.3048 0 6.04528
      vertex 21.3048 60 5
      vertex 21.3048 60 6.04528
    endloop
  endfacet
  facet normal 1 0 0
    outer loop
      vertex 21.3048 60 5
      vertex 21.3048 0 6.04528
      vertex 21.3048 0 5
    endloop
  endfacet
  facet normal 0.104529 0 -0.994522
    outer loop
      vertex 29.1709 10 14.7815
      vertex 31.25 70 15
      vertex 31.25 10 15
    endloop
  endfacet
  facet normal 0.104529 0 -0.994522
    outer loop
      vertex 31.25 70 15
      vertex 29.1709 10 14.7815
      vertex 29.1709 70 14.7815
    endloop
  endfacet
  facet normal 0.809017 0 -0.587785
    outer loop
      vertex 23.8186 70 11.6913
      vertex 22.5897 60 10
      vertex 22.5897 70 10
    endloop
  endfacet
  facet normal 0.809017 0 -0.587785
    outer loop
      vertex 23.8186 10 11.6913
      vertex 22.5897 60 10
      vertex 23.8186 70 11.6913
    endloop
  endfacet
  facet normal 0.809017 0 -0.587785
    outer loop
      vertex 22.5897 10 10
      vertex 22.5897 60 10
      vertex 23.8186 10 11.6913
    endloop
  endfacet
  facet normal 1 0 0
    outer loop
      vertex 22.5897 10 10
      vertex 22.5897 0 10
      vertex 22.5897 60 10
    endloop
  endfacet
  facet normal 0.978148 0 -0.207911
    outer loop
      vertex 21.7394 0 8.09017
      vertex 21.3048 60 6.04528
      vertex 21.7394 60 8.09017
    endloop
  endfacet
  facet normal 0.978148 0 -0.207911
    outer loop
      vertex 21.3048 60 6.04528
      vertex 21.7394 0 8.09017
      vertex 21.3048 0 6.04528
    endloop
  endfacet
  facet normal 0.669131 0 -0.743144
    outer loop
      vertex 23.8186 10 11.6913
      vertex 25.3721 70 13.0902
      vertex 25.3721 10 13.0902
    endloop
  endfacet
  facet normal 0.669131 0 -0.743144
    outer loop
      vertex 25.3721 70 13.0902
      vertex 23.8186 10 11.6913
      vertex 23.8186 70 11.6913
    endloop
  endfacet
  facet normal -0.5 0 -0.866025
    outer loop
      vertex 35.3174 10 14.1355
      vertex 37.1279 70 13.0902
      vertex 37.1279 10 13.0902
    endloop
  endfacet
  facet normal -0.5 0 -0.866025
    outer loop
      vertex 37.1279 70 13.0902
      vertex 35.3174 10 14.1355
      vertex 35.3174 70 14.1355
    endloop
  endfacet
  facet normal 0.913545 0 -0.406737
    outer loop
      vertex 22.5897 0 10
      vertex 21.7394 60 8.09017
      vertex 22.5897 60 10
    endloop
  endfacet
  facet normal 0.913545 0 -0.406737
    outer loop
      vertex 21.7394 60 8.09017
      vertex 22.5897 0 10
      vertex 21.7394 0 8.09017
    endloop
  endfacet
  facet normal -0.104529 0 -0.994522
    outer loop
      vertex 31.25 10 15
      vertex 33.3291 70 14.7815
      vertex 33.3291 10 14.7815
    endloop
  endfacet
  facet normal -0.104529 0 -0.994522
    outer loop
      vertex 33.3291 70 14.7815
      vertex 31.25 10 15
      vertex 31.25 70 15
    endloop
  endfacet
  facet normal -0.978148 0 -0.20791
    outer loop
      vertex 41.1952 0 6.04528
      vertex 40.7606 60 8.09017
      vertex 41.1952 60 6.04528
    endloop
  endfacet
  facet normal -0.978148 -0 -0.20791
    outer loop
      vertex 40.7606 60 8.09017
      vertex 41.1952 0 6.04528
      vertex 40.7606 0 8.09017
    endloop
  endfacet
  facet normal -1 0 0
    outer loop
      vertex 41.1952 0 5
      vertex 41.1952 60 6.04528
      vertex 41.1952 60 5
    endloop
  endfacet
  facet normal -1 -0 0
    outer loop
      vertex 41.1952 60 6.04528
      vertex 41.1952 0 5
      vertex 41.1952 0 6.04528
    endloop
  endfacet
  facet normal -0.309017 0 -0.951057
    outer loop
      vertex 33.3291 10 14.7815
      vertex 35.3174 70 14.1355
      vertex 35.3174 10 14.1355
    endloop
  endfacet
  facet normal -0.309017 0 -0.951057
    outer loop
      vertex 35.3174 70 14.1355
      vertex 33.3291 10 14.7815
      vertex 33.3291 70 14.7815
    endloop
  endfacet
  facet normal -0.669131 0 -0.743145
    outer loop
      vertex 37.1279 10 13.0902
      vertex 38.6814 70 11.6913
      vertex 38.6814 10 11.6913
    endloop
  endfacet
  facet normal -0.669131 0 -0.743145
    outer loop
      vertex 38.6814 70 11.6913
      vertex 37.1279 10 13.0902
      vertex 37.1279 70 13.0902
    endloop
  endfacet
  facet normal -0.913545 0 -0.406737
    outer loop
      vertex 40.7606 60 8.09017
      vertex 39.9103 10 10
      vertex 39.9103 60 10
    endloop
  endfacet
  facet normal -0.913545 0 -0.406737
    outer loop
      vertex 40.7606 0 8.09017
      vertex 39.9103 10 10
      vertex 40.7606 60 8.09017
    endloop
  endfacet
  facet normal -0.913545 -0 -0.406737
    outer loop
      vertex 39.9103 10 10
      vertex 40.7606 0 8.09017
      vertex 39.9103 0 10
    endloop
  endfacet
  facet normal -0.809017 0 -0.587785
    outer loop
      vertex 39.9103 60 10
      vertex 38.6814 70 11.6913
      vertex 39.9103 70 10
    endloop
  endfacet
  facet normal -0.809017 0 -0.587785
    outer loop
      vertex 38.6814 10 11.6913
      vertex 39.9103 60 10
      vertex 39.9103 10 10
    endloop
  endfacet
  facet normal -0.809017 0 -0.587785
    outer loop
      vertex 39.9103 60 10
      vertex 38.6814 10 11.6913
      vertex 38.6814 70 11.6913
    endloop
  endfacet
  facet normal -0 0 1
    outer loop
      vertex 36.25 60 5
      vertex 41.1952 0 5
      vertex 41.1952 60 5
    endloop
  endfacet
  facet normal 0 0 1
    outer loop
      vertex 41.1952 0 5
      vertex 36.25 60 5
      vertex 36.25 0 5
    endloop
  endfacet
  facet normal -0 0 1
    outer loop
      vertex 21.3048 60 5
      vertex 26.25 0 5
      vertex 26.25 60 5
    endloop
  endfacet
  facet normal 0 0 1
    outer loop
      vertex 26.25 0 5
      vertex 21.3048 60 5
      vertex 21.3048 0 5
    endloop
  endfacet
  facet normal 1 0 0
    outer loop
      vertex 26.25 0 4.375
      vertex 26.25 60 5
      vertex 26.25 0 5
    endloop
  endfacet
  facet normal 1 0 0
    outer loop
      vertex 26.25 60 5
      vertex 26.25 0 4.375
      vertex 26.25 60 0.625
    endloop
  endfacet
  facet normal -1 0 0
    outer loop
      vertex 36.25 0 0
      vertex 36.25 60 5
      vertex 36.25 60 0
    endloop
  endfacet
  facet normal -1 -0 0
    outer loop
      vertex 36.25 60 5
      vertex 36.25 0 0
      vertex 36.25 0 5
    endloop
  endfacet
  facet normal 1 0 0
    outer loop
      vertex 26.25 0 0
      vertex 26.25 60 0.625
      vertex 26.25 0 4.375
    endloop
  endfacet
  facet normal 1 0 0
    outer loop
      vertex 26.25 60 0.625
      vertex 26.25 0 0
      vertex 26.25 60 0
    endloop
  endfacet
  facet normal 0.309017 0 -0.951057
    outer loop
      vertex 89.6826 10 14.1355
      vertex 91.6709 70 14.7815
      vertex 91.6709 10 14.7815
    endloop
  endfacet
  facet normal 0.309017 0 -0.951057
    outer loop
      vertex 91.6709 70 14.7815
      vertex 89.6826 10 14.1355
      vertex 89.6826 70 14.1355
    endloop
  endfacet
  facet normal 0.5 0 -0.866025
    outer loop
      vertex 87.8721 10 13.0902
      vertex 89.6826 70 14.1355
      vertex 89.6826 10 14.1355
    endloop
  endfacet
  facet normal 0.5 0 -0.866025
    outer loop
      vertex 89.6826 70 14.1355
      vertex 87.8721 10 13.0902
      vertex 87.8721 70 13.0902
    endloop
  endfacet
  facet normal 1 -0 0
    outer loop
      vertex 83.8048 0 6.04528
      vertex 83.8048 60 5
      vertex 83.8048 60 6.04528
    endloop
  endfacet
  facet normal 1 0 0
    outer loop
      vertex 83.8048 60 5
      vertex 83.8048 0 6.04528
      vertex 83.8048 0 5
    endloop
  endfacet
  facet normal 0.104529 0 -0.994522
    outer loop
      vertex 91.6709 10 14.7815
      vertex 93.75 70 15
      vertex 93.75 10 15
    endloop
  endfacet
  facet normal 0.104529 0 -0.994522
    outer loop
      vertex 93.75 70 15
      vertex 91.6709 10 14.7815
      vertex 91.6709 70 14.7815
    endloop
  endfacet
  facet normal 0.809017 0 -0.587785
    outer loop
      vertex 86.3186 70 11.6913
      vertex 85.0897 60 10
      vertex 85.0897 70 10
    endloop
  endfacet
  facet normal 0.809017 0 -0.587785
    outer loop
      vertex 86.3186 10 11.6913
      vertex 85.0897 60 10
      vertex 86.3186 70 11.6913
    endloop
  endfacet
  facet normal 0.809017 0 -0.587785
    outer loop
      vertex 85.0897 10 10
      vertex 85.0897 60 10
      vertex 86.3186 10 11.6913
    endloop
  endfacet
  facet normal 1 0 0
    outer loop
      vertex 85.0897 10 10
      vertex 85.0897 0 10
      vertex 85.0897 60 10
    endloop
  endfacet
  facet normal 0.978148 0 -0.207912
    outer loop
      vertex 84.2394 0 8.09017
      vertex 83.8048 60 6.04528
      vertex 84.2394 60 8.09017
    endloop
  endfacet
  facet normal 0.978148 0 -0.207912
    outer loop
      vertex 83.8048 60 6.04528
      vertex 84.2394 0 8.09017
      vertex 83.8048 0 6.04528
    endloop
  endfacet
  facet normal 0.669131 0 -0.743145
    outer loop
      vertex 86.3186 10 11.6913
      vertex 87.8721 70 13.0902
      vertex 87.8721 10 13.0902
    endloop
  endfacet
  facet normal 0.669131 0 -0.743145
    outer loop
      vertex 87.8721 70 13.0902
      vertex 86.3186 10 11.6913
      vertex 86.3186 70 11.6913
    endloop
  endfacet
  facet normal -0.5 0 -0.866025
    outer loop
      vertex 97.8174 10 14.1355
      vertex 99.6279 70 13.0902
      vertex 99.6279 10 13.0902
    endloop
  endfacet
  facet normal -0.5 0 -0.866025
    outer loop
      vertex 99.6279 70 13.0902
      vertex 97.8174 10 14.1355
      vertex 97.8174 70 14.1355
    endloop
  endfacet
  facet normal 0.913545 0 -0.406737
    outer loop
      vertex 85.0897 0 10
      vertex 84.2394 60 8.09017
      vertex 85.0897 60 10
    endloop
  endfacet
  facet normal 0.913545 0 -0.406737
    outer loop
      vertex 84.2394 60 8.09017
      vertex 85.0897 0 10
      vertex 84.2394 0 8.09017
    endloop
  endfacet
  facet normal -0.104529 0 -0.994522
    outer loop
      vertex 93.75 10 15
      vertex 95.8291 70 14.7815
      vertex 95.8291 10 14.7815
    endloop
  endfacet
  facet normal -0.104529 0 -0.994522
    outer loop
      vertex 95.8291 70 14.7815
      vertex 93.75 10 15
      vertex 93.75 70 15
    endloop
  endfacet
  facet normal -0.978148 0 -0.207912
    outer loop
      vertex 103.695 0 6.04528
      vertex 103.261 60 8.09017
      vertex 103.695 60 6.04528
    endloop
  endfacet
  facet normal -0.978148 -0 -0.207912
    outer loop
      vertex 103.261 60 8.09017
      vertex 103.695 0 6.04528
      vertex 103.261 0 8.09017
    endloop
  endfacet
  facet normal -1 0 0
    outer loop
      vertex 103.695 0 5
      vertex 103.695 60 6.04528
      vertex 103.695 60 5
    endloop
  endfacet
  facet normal -1 -0 0
    outer loop
      vertex 103.695 60 6.04528
      vertex 103.695 0 5
      vertex 103.695 0 6.04528
    endloop
  endfacet
  facet normal -0.309017 0 -0.951057
    outer loop
      vertex 95.8291 10 14.7815
      vertex 97.8174 70 14.1355
      vertex 97.8174 10 14.1355
    endloop
  endfacet
  facet normal -0.309017 0 -0.951057
    outer loop
      vertex 97.8174 70 14.1355
      vertex 95.8291 10 14.7815
      vertex 95.8291 70 14.7815
    endloop
  endfacet
  facet normal -0.669131 0 -0.743145
    outer loop
      vertex 99.6279 10 13.0902
      vertex 101.181 70 11.6913
      vertex 101.181 10 11.6913
    endloop
  endfacet
  facet normal -0.669131 0 -0.743145
    outer loop
      vertex 101.181 70 11.6913
      vertex 99.6279 10 13.0902
      vertex 99.6279 70 13.0902
    endloop
  endfacet
  facet normal -0.913545 0 -0.406737
    outer loop
      vertex 103.261 60 8.09017
      vertex 102.41 10 10
      vertex 102.41 60 10
    endloop
  endfacet
  facet normal -0.913545 0 -0.406737
    outer loop
      vertex 103.261 0 8.09017
      vertex 102.41 10 10
      vertex 103.261 60 8.09017
    endloop
  endfacet
  facet normal -0.913545 -0 -0.406737
    outer loop
      vertex 102.41 10 10
      vertex 103.261 0 8.09017
      vertex 102.41 0 10
    endloop
  endfacet
  facet normal -0.809017 0 -0.587785
    outer loop
      vertex 102.41 60 10
      vertex 101.181 70 11.6913
      vertex 102.41 70 10
    endloop
  endfacet
  facet normal -0.809017 0 -0.587785
    outer loop
      vertex 101.181 10 11.6913
      vertex 102.41 60 10
      vertex 102.41 10 10
    endloop
  endfacet
  facet normal -0.809017 0 -0.587785
    outer loop
      vertex 102.41 60 10
      vertex 101.181 10 11.6913
      vertex 101.181 70 11.6913
    endloop
  endfacet
  facet normal -0 0 1
    outer loop
      vertex 98.75 60 5
      vertex 103.695 0 5
      vertex 103.695 60 5
    endloop
  endfacet
  facet normal 0 0 1
    outer loop
      vertex 103.695 0 5
      vertex 98.75 60 5
      vertex 98.75 0 5
    endloop
  endfacet
  facet normal -0 0 1
    outer loop
      vertex 83.8048 60 5
      vertex 88.75 0 5
      vertex 88.75 60 5
    endloop
  endfacet
  facet normal 0 0 1
    outer loop
      vertex 88.75 0 5
      vertex 83.8048 60 5
      vertex 83.8048 0 5
    endloop
  endfacet
  facet normal 1 0 0
    outer loop
      vertex 88.75 0 4.375
      vertex 88.75 60 5
      vertex 88.75 0 5
    endloop
  endfacet
  facet normal 1 0 0
    outer loop
      vertex 88.75 60 5
      vertex 88.75 0 4.375
      vertex 88.75 60 0.625
    endloop
  endfacet
  facet normal -1 0 0
    outer loop
      vertex 98.75 0 0
      vertex 98.75 60 5
      vertex 98.75 60 0
    endloop
  endfacet
  facet normal -1 -0 0
    outer loop
      vertex 98.75 60 5
      vertex 98.75 0 0
      vertex 98.75 0 5
    endloop
  endfacet
  facet normal 1 0 0
    outer loop
      vertex 88.75 0 0
      vertex 88.75 60 0.625
      vertex 88.75 0 4.375
    endloop
  endfacet
  facet normal 1 0 0
    outer loop
      vertex 88.75 60 0.625
      vertex 88.75 0 0
      vertex 88.75 60 0
    endloop
  endfacet
endsolid OpenSCAD_Model
