solid OpenSCAD_Model
  facet normal -1 0 0
    outer loop
      vertex 0 0 0
      vertex 0 60 10
      vertex 0 60 0
    endloop
  endfacet
  facet normal -1 -0 0
    outer loop
      vertex 0 60 10
      vertex 0 0 0
      vertex 0 0 10
    endloop
  endfacet
  facet normal 0 0 -1
    outer loop
      vertex 10 60 10
      vertex 28.8397 70 10
      vertex 28.8397 60 10
    endloop
  endfacet
  facet normal -0 0 -1
    outer loop
      vertex 28.8397 70 10
      vertex 10 60 10
      vertex 10 70 10
    endloop
  endfacet
  facet normal 0 0 1
    outer loop
      vertex 10 60 10
      vertex 0 60 10
      vertex 10 10 10
    endloop
  endfacet
  facet normal -0 0 1
    outer loop
      vertex 10 10 10
      vertex 28.8397 0 10
      vertex 28.8397 10 10
    endloop
  endfacet
  facet normal 0 0 1
    outer loop
      vertex 10 10 10
      vertex 0 0 10
      vertex 28.8397 0 10
    endloop
  endfacet
  facet normal 0 0 1
    outer loop
      vertex 0 0 10
      vertex 10 10 10
      vertex 0 60 10
    endloop
  endfacet
  facet normal 0 0 -1
    outer loop
      vertex 125 60 10
      vertex 135 10 10
      vertex 125 10 10
    endloop
  endfacet
  facet normal 0 0 -1
    outer loop
      vertex 135 10 10
      vertex 125 60 10
      vertex 135 70 10
    endloop
  endfacet
  facet normal 0 0 -1
    outer loop
      vertex 96.1603 70 10
      vertex 125 60 10
      vertex 96.1603 60 10
    endloop
  endfacet
  facet normal 0 0 -1
    outer loop
      vertex 125 60 10
      vertex 96.1603 70 10
      vertex 135 70 10
    endloop
  endfacet
  facet normal -0 0 1
    outer loop
      vertex 96.1603 10 10
      vertex 125 0 10
      vertex 125 10 10
    endloop
  endfacet
  facet normal 0 0 1
    outer loop
      vertex 125 0 10
      vertex 96.1603 10 10
      vertex 96.1603 0 10
    endloop
  endfacet
  facet normal -0 0 1
    outer loop
      vertex 46.1603 10 10
      vertex 78.8397 0 10
      vertex 78.8397 10 10
    endloop
  endfacet
  facet normal 0 0 1
    outer loop
      vertex 78.8397 0 10
      vertex 46.1603 10 10
      vertex 46.1603 0 10
    endloop
  endfacet
  facet normal 0 0 -1
    outer loop
      vertex 46.1603 60 10
      vertex 78.8397 70 10
      vertex 78.8397 60 10
    endloop
  endfacet
  facet normal -0 0 -1
    outer loop
      vertex 78.8397 70 10
      vertex 46.1603 60 10
      vertex 46.1603 70 10
    endloop
  endfacet
  facet normal 1 -0 0
    outer loop
      vertex 125 10 10
      vertex 125 60 0
      vertex 125 60 10
    endloop
  endfacet
  facet normal 1 0 0
    outer loop
      vertex 125 0 0
      vertex 125 10 10
      vertex 125 0 10
    endloop
  endfacet
  facet normal 1 0 0
    outer loop
      vertex 125 10 10
      vertex 125 0 0
      vertex 125 60 0
    endloop
  endfacet
  facet normal 0 0 -1
    outer loop
      vertex 0 0 0
      vertex 32.5 60 0
      vertex 32.5 0 0
    endloop
  endfacet
  facet normal -0 0 -1
    outer loop
      vertex 32.5 60 0
      vertex 0 0 0
      vertex 0 60 0
    endloop
  endfacet
  facet normal 0 0 -1
    outer loop
      vertex 92.5 0 0
      vertex 125 60 0
      vertex 125 0 0
    endloop
  endfacet
  facet normal -0 0 -1
    outer loop
      vertex 125 60 0
      vertex 92.5 0 0
      vertex 92.5 60 0
    endloop
  endfacet
  facet normal 0 0 -1
    outer loop
      vertex 42.5 0 0
      vertex 82.5 60 0
      vertex 82.5 0 0
    endloop
  endfacet
  facet normal -0 0 -1
    outer loop
      vertex 82.5 60 0
      vertex 42.5 0 0
      vertex 42.5 60 0
    endloop
  endfacet
  facet normal 0 -1 0
    outer loop
      vertex 27.9894 0 8.09017
      vertex 28.8397 0 10
      vertex 0 0 10
    endloop
  endfacet
  facet normal 0 -1 0
    outer loop
      vertex 0 0 10
      vertex 27.5548 0 6.04528
      vertex 27.9894 0 8.09017
    endloop
  endfacet
  facet normal 0 -1 0
    outer loop
      vertex 0 0 10
      vertex 27.5548 0 5
      vertex 27.5548 0 6.04528
    endloop
  endfacet
  facet normal 0 -1 0
    outer loop
      vertex 27.5548 0 5
      vertex 32.5 0 4.375
      vertex 32.5 0 5
    endloop
  endfacet
  facet normal 0 -1 0
    outer loop
      vertex 0 0 0
      vertex 27.5548 0 5
      vertex 0 0 10
    endloop
  endfacet
  facet normal 0 -1 0
    outer loop
      vertex 32.5 0 0
      vertex 27.5548 0 5
      vertex 0 0 0
    endloop
  endfacet
  facet normal 0 -1 0
    outer loop
      vertex 27.5548 0 5
      vertex 32.5 0 0
      vertex 32.5 0 4.375
    endloop
  endfacet
  facet normal 0 -1 0
    outer loop
      vertex 92.5 0 5
      vertex 92.5 0 0
      vertex 97.4452 0 5
    endloop
  endfacet
  facet normal 0 -1 0
    outer loop
      vertex 97.0106 0 8.09017
      vertex 125 0 10
      vertex 96.1603 0 10
    endloop
  endfacet
  facet normal 0 -1 0
    outer loop
      vertex 97.4452 0 6.04528
      vertex 125 0 10
      vertex 97.0106 0 8.09017
    endloop
  endfacet
  facet normal 0 -1 0
    outer loop
      vertex 97.4452 0 5
      vertex 125 0 10
      vertex 97.4452 0 6.04528
    endloop
  endfacet
  facet normal 0 -1 0
    outer loop
      vertex 125 0 0
      vertex 97.4452 0 5
      vertex 92.5 0 0
    endloop
  endfacet
  facet normal 0 -1 0
    outer loop
      vertex 97.4452 0 5
      vertex 125 0 0
      vertex 125 0 10
    endloop
  endfacet
  facet normal 0 -1 0
    outer loop
      vertex 42.5 0 0
      vertex 47.4452 0 5
      vertex 42.5 0 5
    endloop
  endfacet
  facet normal 0 -1 -0
    outer loop
      vertex 47.4452 0 5
      vertex 42.5 0 0
      vertex 77.5548 0 5
    endloop
  endfacet
  facet normal 0 -1 0
    outer loop
      vertex 77.5548 0 5
      vertex 82.5 0 4.375
      vertex 82.5 0 5
    endloop
  endfacet
  facet normal 0 -1 0
    outer loop
      vertex 82.5 0 0
      vertex 77.5548 0 5
      vertex 42.5 0 0
    endloop
  endfacet
  facet normal 0 -1 0
    outer loop
      vertex 77.5548 0 5
      vertex 82.5 0 0
      vertex 82.5 0 4.375
    endloop
  endfacet
  facet normal 0 -1 0
    outer loop
      vertex 47.0106 0 8.09017
      vertex 78.8397 0 10
      vertex 46.1603 0 10
    endloop
  endfacet
  facet normal 0 -1 0
    outer loop
      vertex 77.9894 0 8.09017
      vertex 78.8397 0 10
      vertex 47.0106 0 8.09017
    endloop
  endfacet
  facet normal 0 -1 0
    outer loop
      vertex 47.4452 0 6.04528
      vertex 77.9894 0 8.09017
      vertex 47.0106 0 8.09017
    endloop
  endfacet
  facet normal 0 -1 0
    outer loop
      vertex 47.4452 0 6.04528
      vertex 77.5548 0 6.04528
      vertex 77.9894 0 8.09017
    endloop
  endfacet
  facet normal 0 -1 0
    outer loop
      vertex 47.4452 0 5
      vertex 77.5548 0 6.04528
      vertex 47.4452 0 6.04528
    endloop
  endfacet
  facet normal 0 -1 -0
    outer loop
      vertex 77.5548 0 6.04528
      vertex 47.4452 0 5
      vertex 77.5548 0 5
    endloop
  endfacet
  facet normal 0 1 0
    outer loop
      vertex 125 60 10
      vertex 97.0106 60 8.09017
      vertex 96.1603 60 10
    endloop
  endfacet
  facet normal 0 1 0
    outer loop
      vertex 125 60 10
      vertex 97.4452 60 6.04528
      vertex 97.0106 60 8.09017
    endloop
  endfacet
  facet normal 0 1 0
    outer loop
      vertex 125 60 10
      vertex 97.4452 60 5
      vertex 97.4452 60 6.04528
    endloop
  endfacet
  facet normal 0 1 -0
    outer loop
      vertex 125 60 0
      vertex 97.4452 60 5
      vertex 125 60 10
    endloop
  endfacet
  facet normal 0 1 0
    outer loop
      vertex 92.5 60 0
      vertex 97.4452 60 5
      vertex 125 60 0
    endloop
  endfacet
  facet normal 0 1 0
    outer loop
      vertex 97.4452 60 5
      vertex 92.5 60 0
      vertex 92.5 60 5
    endloop
  endfacet
  facet normal 0 1 0
    outer loop
      vertex 32.5 60 5
      vertex 32.5 60 0.625
      vertex 27.5548 60 5
    endloop
  endfacet
  facet normal 0 1 -0
    outer loop
      vertex 27.9894 60 8.09017
      vertex 10 60 10
      vertex 28.8397 60 10
    endloop
  endfacet
  facet normal 0 1 -0
    outer loop
      vertex 27.5548 60 6.04528
      vertex 10 60 10
      vertex 27.9894 60 8.09017
    endloop
  endfacet
  facet normal 0 1 -0
    outer loop
      vertex 27.5548 60 5
      vertex 10 60 10
      vertex 27.5548 60 6.04528
    endloop
  endfacet
  facet normal 0 1 0
    outer loop
      vertex 0 60 0
      vertex 10 60 10
      vertex 27.5548 60 5
    endloop
  endfacet
  facet normal 0 1 -0
    outer loop
      vertex 32.5 60 0
      vertex 27.5548 60 5
      vertex 32.5 60 0.625
    endloop
  endfacet
  facet normal 0 1 0
    outer loop
      vertex 27.5548 60 5
      vertex 32.5 60 0
      vertex 0 60 0
    endloop
  endfacet
  facet normal 0 1 0
    outer loop
      vertex 10 60 10
      vertex 0 60 0
      vertex 0 60 10
    endloop
  endfacet
  facet normal 0 1 -0
    outer loop
      vertex 82.5 60 0.625
      vertex 77.5548 60 5
      vertex 82.5 60 5
    endloop
  endfacet
  facet normal 0 1 -0
    outer loop
      vertex 82.5 60 0
      vertex 77.5548 60 5
      vertex 82.5 60 0.625
    endloop
  endfacet
  facet normal 0 1 0
    outer loop
      vertex 77.5548 60 5
      vertex 82.5 60 0
      vertex 47.4452 60 5
    endloop
  endfacet
  facet normal 0 1 0
    outer loop
      vertex 47.4452 60 5
      vertex 82.5 60 0
      vertex 42.5 60 0
    endloop
  endfacet
  facet normal 0 1 0
    outer loop
      vertex 47.4452 60 5
      vertex 42.5 60 0
      vertex 42.5 60 5
    endloop
  endfacet
  facet normal 0 1 0
    outer loop
      vertex 78.8397 60 10
      vertex 77.9894 60 8.09017
      vertex 46.1603 60 10
    endloop
  endfacet
  facet normal 0 1 0
    outer loop
      vertex 77.9894 60 8.09017
      vertex 47.0106 60 8.09017
      vertex 46.1603 60 10
    endloop
  endfacet
  facet normal 0 1 -0
    outer loop
      vertex 77.5548 60 6.04528
      vertex 47.0106 60 8.09017
      vertex 77.9894 60 8.09017
    endloop
  endfacet
  facet normal 0 1 0
    outer loop
      vertex 77.5548 60 6.04528
      vertex 47.4452 60 6.04528
      vertex 47.0106 60 8.09017
    endloop
  endfacet
  facet normal 0 1 -0
    outer loop
      vertex 77.5548 60 5
      vertex 47.4452 60 6.04528
      vertex 77.5548 60 6.04528
    endloop
  endfacet
  facet normal 0 1 0
    outer loop
      vertex 47.4452 60 6.04528
      vertex 77.5548 60 5
      vertex 47.4452 60 5
    endloop
  endfacet
  facet normal -1 0 0
    outer loop
      vertex 10 60 10
      vertex 10 70 20
      vertex 10 70 10
    endloop
  endfacet
  facet normal -1 0 0
    outer loop
      vertex 10 10 20
      vertex 10 60 10
      vertex 10 10 10
    endloop
  endfacet
  facet normal -1 0 0
    outer loop
      vertex 10 60 10
      vertex 10 10 20
      vertex 10 70 20
    endloop
  endfacet
  facet normal -0 0 1
    outer loop
      vertex 10 70 20
      vertex 135 10 20
      vertex 135 70 20
    endloop
  endfacet
  facet normal 0 0 1
    outer loop
      vertex 135 10 20
      vertex 10 70 20
      vertex 10 10 20
    endloop
  endfacet
  facet normal 1 -0 0
    outer loop
      vertex 135 10 20
      vertex 135 70 10
      vertex 135 70 20
    endloop
  endfacet
  facet normal 1 0 0
    outer loop
      vertex 135 70 10
      vertex 135 10 20
      vertex 135 10 10
    endloop
  endfacet
  facet normal 0 -1 0
    outer loop
      vertex 39.5791 10 14.7815
      vertex 87.5 10 15
      vertex 37.5 10 15
    endloop
  endfacet
  facet normal 0 -1 0
    outer loop
      vertex 39.5791 10 14.7815
      vertex 85.4209 10 14.7815
      vertex 87.5 10 15
    endloop
  endfacet
  facet normal 0 -1 0
    outer loop
      vertex 41.5674 10 14.1355
      vertex 85.4209 10 14.7815
      vertex 39.5791 10 14.7815
    endloop
  endfacet
  facet normal 0 -1 0
    outer loop
      vertex 41.5674 10 14.1355
      vertex 83.4326 10 14.1355
      vertex 85.4209 10 14.7815
    endloop
  endfacet
  facet normal 0 -1 0
    outer loop
      vertex 43.3779 10 13.0902
      vertex 83.4326 10 14.1355
      vertex 41.5674 10 14.1355
    endloop
  endfacet
  facet normal 0 -1 0
    outer loop
      vertex 43.3779 10 13.0902
      vertex 81.6221 10 13.0902
      vertex 83.4326 10 14.1355
    endloop
  endfacet
  facet normal 0 -1 0
    outer loop
      vertex 44.9314 10 11.6913
      vertex 81.6221 10 13.0902
      vertex 43.3779 10 13.0902
    endloop
  endfacet
  facet normal 0 -1 0
    outer loop
      vertex 44.9314 10 11.6913
      vertex 80.0686 10 11.6913
      vertex 81.6221 10 13.0902
    endloop
  endfacet
  facet normal 0 -1 0
    outer loop
      vertex 46.1603 10 10
      vertex 80.0686 10 11.6913
      vertex 44.9314 10 11.6913
    endloop
  endfacet
  facet normal 0 -1 0
    outer loop
      vertex 80.0686 10 11.6913
      vertex 46.1603 10 10
      vertex 78.8397 10 10
    endloop
  endfacet
  facet normal 0 -1 0
    outer loop
      vertex 87.5 10 15
      vertex 10 10 20
      vertex 37.5 10 15
    endloop
  endfacet
  facet normal 0 -1 0
    outer loop
      vertex 10 10 20
      vertex 35.4209 10 14.7815
      vertex 37.5 10 15
    endloop
  endfacet
  facet normal 0 -1 0
    outer loop
      vertex 10 10 20
      vertex 33.4326 10 14.1355
      vertex 35.4209 10 14.7815
    endloop
  endfacet
  facet normal 0 -1 0
    outer loop
      vertex 10 10 20
      vertex 31.6221 10 13.0902
      vertex 33.4326 10 14.1355
    endloop
  endfacet
  facet normal 0 -1 0
    outer loop
      vertex 10 10 20
      vertex 30.0686 10 11.6913
      vertex 31.6221 10 13.0902
    endloop
  endfacet
  facet normal 0 -1 0
    outer loop
      vertex 28.8397 10 10
      vertex 10 10 20
      vertex 10 10 10
    endloop
  endfacet
  facet normal 0 -1 0
    outer loop
      vertex 10 10 20
      vertex 28.8397 10 10
      vertex 30.0686 10 11.6913
    endloop
  endfacet
  facet normal 0 -1 0
    outer loop
      vertex 10 10 20
      vertex 87.5 10 15
      vertex 135 10 20
    endloop
  endfacet
  facet normal 0 -1 0
    outer loop
      vertex 89.5791 10 14.7815
      vertex 135 10 20
      vertex 87.5 10 15
    endloop
  endfacet
  facet normal 0 -1 0
    outer loop
      vertex 91.5674 10 14.1355
      vertex 135 10 20
      vertex 89.5791 10 14.7815
    endloop
  endfacet
  facet normal 0 -1 0
    outer loop
      vertex 93.3779 10 13.0902
      vertex 135 10 20
      vertex 91.5674 10 14.1355
    endloop
  endfacet
  facet normal 0 -1 0
    outer loop
      vertex 125 10 10
      vertex 93.3779 10 13.0902
      vertex 94.9314 10 11.6913
    endloop
  endfacet
  facet normal 0 -1 0
    outer loop
      vertex 125 10 10
      vertex 94.9314 10 11.6913
      vertex 96.1603 10 10
    endloop
  endfacet
  facet normal 0 -1 0
    outer loop
      vertex 93.3779 10 13.0902
      vertex 125 10 10
      vertex 135 10 20
    endloop
  endfacet
  facet normal 0 -1 -0
    outer loop
      vertex 135 10 20
      vertex 125 10 10
      vertex 135 10 10
    endloop
  endfacet
  facet normal 0 1 -0
    outer loop
      vertex 85.4209 70 14.7815
      vertex 37.5 70 15
      vertex 87.5 70 15
    endloop
  endfacet
  facet normal 0 1 0
    outer loop
      vertex 85.4209 70 14.7815
      vertex 39.5791 70 14.7815
      vertex 37.5 70 15
    endloop
  endfacet
  facet normal 0 1 -0
    outer loop
      vertex 83.4326 70 14.1355
      vertex 39.5791 70 14.7815
      vertex 85.4209 70 14.7815
    endloop
  endfacet
  facet normal 0 1 0
    outer loop
      vertex 83.4326 70 14.1355
      vertex 41.5674 70 14.1355
      vertex 39.5791 70 14.7815
    endloop
  endfacet
  facet normal 0 1 -0
    outer loop
      vertex 81.6221 70 13.0902
      vertex 41.5674 70 14.1355
      vertex 83.4326 70 14.1355
    endloop
  endfacet
  facet normal 0 1 0
    outer loop
      vertex 81.6221 70 13.0902
      vertex 43.3779 70 13.0902
      vertex 41.5674 70 14.1355
    endloop
  endfacet
  facet normal 0 1 -0
    outer loop
      vertex 80.0686 70 11.6913
      vertex 43.3779 70 13.0902
      vertex 81.6221 70 13.0902
    endloop
  endfacet
  facet normal 0 1 0
    outer loop
      vertex 80.0686 70 11.6913
      vertex 44.9314 70 11.6913
      vertex 43.3779 70 13.0902
    endloop
  endfacet
  facet normal 0 1 -0
    outer loop
      vertex 78.8397 70 10
      vertex 44.9314 70 11.6913
      vertex 80.0686 70 11.6913
    endloop
  endfacet
  facet normal 0 1 0
    outer loop
      vertex 44.9314 70 11.6913
      vertex 78.8397 70 10
      vertex 46.1603 70 10
    endloop
  endfacet
  facet normal 0 1 0
    outer loop
      vertex 135 70 20
      vertex 87.5 70 15
      vertex 10 70 20
    endloop
  endfacet
  facet normal 0 1 0
    outer loop
      vertex 135 70 20
      vertex 89.5791 70 14.7815
      vertex 87.5 70 15
    endloop
  endfacet
  facet normal 0 1 0
    outer loop
      vertex 135 70 20
      vertex 91.5674 70 14.1355
      vertex 89.5791 70 14.7815
    endloop
  endfacet
  facet normal 0 1 0
    outer loop
      vertex 135 70 20
      vertex 93.3779 70 13.0902
      vertex 91.5674 70 14.1355
    endloop
  endfacet
  facet normal 0 1 0
    outer loop
      vertex 135 70 20
      vertex 94.9314 70 11.6913
      vertex 93.3779 70 13.0902
    endloop
  endfacet
  facet normal 0 1 0
    outer loop
      vertex 96.1603 70 10
      vertex 135 70 20
      vertex 135 70 10
    endloop
  endfacet
  facet normal 0 1 0
    outer loop
      vertex 135 70 20
      vertex 96.1603 70 10
      vertex 94.9314 70 11.6913
    endloop
  endfacet
  facet normal 0 1 -0
    outer loop
      vertex 37.5 70 15
      vertex 10 70 20
      vertex 87.5 70 15
    endloop
  endfacet
  facet normal 0 1 -0
    outer loop
      vertex 35.4209 70 14.7815
      vertex 10 70 20
      vertex 37.5 70 15
    endloop
  endfacet
  facet normal 0 1 -0
    outer loop
      vertex 33.4326 70 14.1355
      vertex 10 70 20
      vertex 35.4209 70 14.7815
    endloop
  endfacet
  facet normal 0 1 -0
    outer loop
      vertex 31.6221 70 13.0902
      vertex 10 70 20
      vertex 33.4326 70 14.1355
    endloop
  endfacet
  facet normal 0 1 -0
    outer loop
      vertex 30.0686 70 11.6913
      vertex 10 70 20
      vertex 31.6221 70 13.0902
    endloop
  endfacet
  facet normal 0 1 -0
    outer loop
      vertex 28.8397 70 10
      vertex 10 70 20
      vertex 30.0686 70 11.6913
    endloop
  endfacet
  facet normal 0 1 0
    outer loop
      vertex 10 70 20
      vertex 28.8397 70 10
      vertex 10 70 10
    endloop
  endfacet
  facet normal 0.309017 0 -0.951057
    outer loop
      vertex 33.4326 10 14.1355
      vertex 35.4209 70 14.7815
      vertex 35.4209 10 14.7815
    endloop
  endfacet
  facet normal 0.309017 0 -0.951057
    outer loop
      vertex 35.4209 70 14.7815
      vertex 33.4326 10 14.1355
      vertex 33.4326 70 14.1355
    endloop
  endfacet
  facet normal 0.5 0 -0.866025
    outer loop
      vertex 31.6221 10 13.0902
      vertex 33.4326 70 14.1355
      vertex 33.4326 10 14.1355
    endloop
  endfacet
  facet normal 0.5 0 -0.866025
    outer loop
      vertex 33.4326 70 14.1355
      vertex 31.6221 10 13.0902
      vertex 31.6221 70 13.0902
    endloop
  endfacet
  facet normal 1 -0 0
    outer loop
      vertex 27.5548 0 6.04528
      vertex 27.5548 60 5
      vertex 27.5548 60 6.04528
    endloop
  endfacet
  facet normal 1 0 0
    outer loop
      vertex 27.5548 60 5
      vertex 27.5548 0 6.04528
      vertex 27.5548 0 5
    endloop
  endfacet
  facet normal 0.104529 0 -0.994522
    outer loop
      vertex 35.4209 10 14.7815
      vertex 37.5 70 15
      vertex 37.5 10 15
    endloop
  endfacet
  facet normal 0.104529 0 -0.994522
    outer loop
      vertex 37.5 70 15
      vertex 35.4209 10 14.7815
      vertex 35.4209 70 14.7815
    endloop
  endfacet
  facet normal 0.809017 0 -0.587785
    outer loop
      vertex 30.0686 70 11.6913
      vertex 28.8397 60 10
      vertex 28.8397 70 10
    endloop
  endfacet
  facet normal 0.809017 0 -0.587785
    outer loop
      vertex 30.0686 10 11.6913
      vertex 28.8397 60 10
      vertex 30.0686 70 11.6913
    endloop
  endfacet
  facet normal 0.809017 0 -0.587785
    outer loop
      vertex 28.8397 10 10
      vertex 28.8397 60 10
      vertex 30.0686 10 11.6913
    endloop
  endfacet
  facet normal 1 0 0
    outer loop
      vertex 28.8397 10 10
      vertex 28.8397 0 10
      vertex 28.8397 60 10
    endloop
  endfacet
  facet normal 0.978148 0 -0.207911
    outer loop
      vertex 27.9894 0 8.09017
      vertex 27.5548 60 6.04528
      vertex 27.9894 60 8.09017
    endloop
  endfacet
  facet normal 0.978148 0 -0.207911
    outer loop
      vertex 27.5548 60 6.04528
      vertex 27.9894 0 8.09017
      vertex 27.5548 0 6.04528
    endloop
  endfacet
  facet normal 0.669131 0 -0.743144
    outer loop
      vertex 30.0686 10 11.6913
      vertex 31.6221 70 13.0902
      vertex 31.6221 10 13.0902
    endloop
  endfacet
  facet normal 0.669131 0 -0.743144
    outer loop
      vertex 31.6221 70 13.0902
      vertex 30.0686 10 11.6913
      vertex 30.0686 70 11.6913
    endloop
  endfacet
  facet normal -0.5 0 -0.866025
    outer loop
      vertex 41.5674 10 14.1355
      vertex 43.3779 70 13.0902
      vertex 43.3779 10 13.0902
    endloop
  endfacet
  facet normal -0.5 0 -0.866025
    outer loop
      vertex 43.3779 70 13.0902
      vertex 41.5674 10 14.1355
      vertex 41.5674 70 14.1355
    endloop
  endfacet
  facet normal 0.913545 0 -0.406737
    outer loop
      vertex 28.8397 0 10
      vertex 27.9894 60 8.09017
      vertex 28.8397 60 10
    endloop
  endfacet
  facet normal 0.913545 0 -0.406737
    outer loop
      vertex 27.9894 60 8.09017
      vertex 28.8397 0 10
      vertex 27.9894 0 8.09017
    endloop
  endfacet
  facet normal -0.104529 0 -0.994522
    outer loop
      vertex 37.5 10 15
      vertex 39.5791 70 14.7815
      vertex 39.5791 10 14.7815
    endloop
  endfacet
  facet normal -0.104529 0 -0.994522
    outer loop
      vertex 39.5791 70 14.7815
      vertex 37.5 10 15
      vertex 37.5 70 15
    endloop
  endfacet
  facet normal -0.978148 0 -0.20791
    outer loop
      vertex 47.4452 0 6.04528
      vertex 47.0106 60 8.09017
      vertex 47.4452 60 6.04528
    endloop
  endfacet
  facet normal -0.978148 -0 -0.20791
    outer loop
      vertex 47.0106 60 8.09017
      vertex 47.4452 0 6.04528
      vertex 47.0106 0 8.09017
    endloop
  endfacet
  facet normal -1 0 0
    outer loop
      vertex 47.4452 0 5
      vertex 47.4452 60 6.04528
      vertex 47.4452 60 5
    endloop
  endfacet
  facet normal -1 -0 0
    outer loop
      vertex 47.4452 60 6.04528
      vertex 47.4452 0 5
      vertex 47.4452 0 6.04528
    endloop
  endfacet
  facet normal -0.309017 0 -0.951057
    outer loop
      vertex 39.5791 10 14.7815
      vertex 41.5674 70 14.1355
      vertex 41.5674 10 14.1355
    endloop
  endfacet
  facet normal -0.309017 0 -0.951057
    outer loop
      vertex 41.5674 70 14.1355
      vertex 39.5791 10 14.7815
      vertex 39.5791 70 14.7815
    endloop
  endfacet
  facet normal -0.669131 0 -0.743145
    outer loop
      vertex 43.3779 10 13.0902
      vertex 44.9314 70 11.6913
      vertex 44.9314 10 11.6913
    endloop
  endfacet
  facet normal -0.669131 0 -0.743145
    outer loop
      vertex 44.9314 70 11.6913
      vertex 43.3779 10 13.0902
      vertex 43.3779 70 13.0902
    endloop
  endfacet
  facet normal -0.913545 0 -0.406737
    outer loop
      vertex 47.0106 60 8.09017
      vertex 46.1603 10 10
      vertex 46.1603 60 10
    endloop
  endfacet
  facet normal -0.913545 0 -0.406737
    outer loop
      vertex 47.0106 0 8.09017
      vertex 46.1603 10 10
      vertex 47.0106 60 8.09017
    endloop
  endfacet
  facet normal -0.913545 -0 -0.406737
    outer loop
      vertex 46.1603 10 10
      vertex 47.0106 0 8.09017
      vertex 46.1603 0 10
    endloop
  endfacet
  facet normal -0.809017 0 -0.587785
    outer loop
      vertex 46.1603 60 10
      vertex 44.9314 70 11.6913
      vertex 46.1603 70 10
    endloop
  endfacet
  facet normal -0.809017 0 -0.587785
    outer loop
      vertex 44.9314 10 11.6913
      vertex 46.1603 60 10
      vertex 46.1603 10 10
    endloop
  endfacet
  facet normal -0.809017 0 -0.587785
    outer loop
      vertex 46.1603 60 10
      vertex 44.9314 10 11.6913
      vertex 44.9314 70 11.6913
    endloop
  endfacet
  facet normal -0 0 1
    outer loop
      vertex 42.5 60 5
      vertex 47.4452 0 5
      vertex 47.4452 60 5
    endloop
  endfacet
  facet normal 0 0 1
    outer loop
      vertex 47.4452 0 5
      vertex 42.5 60 5
      vertex 42.5 0 5
    endloop
  endfacet
  facet normal -0 0 1
    outer loop
      vertex 27.5548 60 5
      vertex 32.5 0 5
      vertex 32.5 60 5
    endloop
  endfacet
  facet normal 0 0 1
    outer loop
      vertex 32.5 0 5
      vertex 27.5548 60 5
      vertex 27.5548 0 5
    endloop
  endfacet
  facet normal 1 0 0
    outer loop
      vertex 32.5 0 4.375
      vertex 32.5 60 5
      vertex 32.5 0 5
    endloop
  endfacet
  facet normal 1 0 0
    outer loop
      vertex 32.5 60 5
      vertex 32.5 0 4.375
      vertex 32.5 60 0.625
    endloop
  endfacet
  facet normal -1 0 0
    outer loop
      vertex 42.5 0 0
      vertex 42.5 60 5
      vertex 42.5 60 0
    endloop
  endfacet
  facet normal -1 -0 0
    outer loop
      vertex 42.5 60 5
      vertex 42.5 0 0
      vertex 42.5 0 5
    endloop
  endfacet
  facet normal 1 0 0
    outer loop
      vertex 32.5 0 0
      vertex 32.5 60 0.625
      vertex 32.5 0 4.375
    endloop
  endfacet
  facet normal 1 0 0
    outer loop
      vertex 32.5 60 0.625
      vertex 32.5 0 0
      vertex 32.5 60 0
    endloop
  endfacet
  facet normal 0.309017 0 -0.951057
    outer loop
      vertex 83.4326 10 14.1355
      vertex 85.4209 70 14.7815
      vertex 85.4209 10 14.7815
    endloop
  endfacet
  facet normal 0.309017 0 -0.951057
    outer loop
      vertex 85.4209 70 14.7815
      vertex 83.4326 10 14.1355
      vertex 83.4326 70 14.1355
    endloop
  endfacet
  facet normal 0.5 0 -0.866025
    outer loop
      vertex 81.6221 10 13.0902
      vertex 83.4326 70 14.1355
      vertex 83.4326 10 14.1355
    endloop
  endfacet
  facet normal 0.5 0 -0.866025
    outer loop
      vertex 83.4326 70 14.1355
      vertex 81.6221 10 13.0902
      vertex 81.6221 70 13.0902
    endloop
  endfacet
  facet normal 1 -0 0
    outer loop
      vertex 77.5548 0 6.04528
      vertex 77.5548 60 5
      vertex 77.5548 60 6.04528
    endloop
  endfacet
  facet normal 1 0 0
    outer loop
      vertex 77.5548 60 5
      vertex 77.5548 0 6.04528
      vertex 77.5548 0 5
    endloop
  endfacet
  facet normal 0.104529 0 -0.994522
    outer loop
      vertex 85.4209 10 14.7815
      vertex 87.5 70 15
      vertex 87.5 10 15
    endloop
  endfacet
  facet normal 0.104529 0 -0.994522
    outer loop
      vertex 87.5 70 15
      vertex 85.4209 10 14.7815
      vertex 85.4209 70 14.7815
    endloop
  endfacet
  facet normal 0.809017 0 -0.587785
    outer loop
      vertex 80.0686 70 11.6913
      vertex 78.8397 60 10
      vertex 78.8397 70 10
    endloop
  endfacet
  facet normal 0.809017 0 -0.587785
    outer loop
      vertex 80.0686 10 11.6913
      vertex 78.8397 60 10
      vertex 80.0686 70 11.6913
    endloop
  endfacet
  facet normal 0.809017 0 -0.587785
    outer loop
      vertex 78.8397 10 10
      vertex 78.8397 60 10
      vertex 80.0686 10 11.6913
    endloop
  endfacet
  facet normal 1 0 0
    outer loop
      vertex 78.8397 10 10
      vertex 78.8397 0 10
      vertex 78.8397 60 10
    endloop
  endfacet
  facet normal 0.978148 0 -0.207912
    outer loop
      vertex 77.9894 0 8.09017
      vertex 77.5548 60 6.04528
      vertex 77.9894 60 8.09017
    endloop
  endfacet
  facet normal 0.978148 0 -0.207912
    outer loop
      vertex 77.5548 60 6.04528
      vertex 77.9894 0 8.09017
      vertex 77.5548 0 6.04528
    endloop
  endfacet
  facet normal 0.669131 0 -0.743145
    outer loop
      vertex 80.0686 10 11.6913
      vertex 81.6221 70 13.0902
      vertex 81.6221 10 13.0902
    endloop
  endfacet
  facet normal 0.669131 0 -0.743145
    outer loop
      vertex 81.6221 70 13.0902
      vertex 80.0686 10 11.6913
      vertex 80.0686 70 11.6913
    endloop
  endfacet
  facet normal -0.5 0 -0.866025
    outer loop
      vertex 91.5674 10 14.1355
      vertex 93.3779 70 13.0902
      vertex 93.3779 10 13.0902
    endloop
  endfacet
  facet normal -0.5 0 -0.866025
    outer loop
      vertex 93.3779 70 13.0902
      vertex 91.5674 10 14.1355
      vertex 91.5674 70 14.1355
    endloop
  endfacet
  facet normal 0.913545 0 -0.406737
    outer loop
      vertex 78.8397 0 10
      vertex 77.9894 60 8.09017
      vertex 78.8397 60 10
    endloop
  endfacet
  facet normal 0.913545 0 -0.406737
    outer loop
      vertex 77.9894 60 8.09017
      vertex 78.8397 0 10
      vertex 77.9894 0 8.09017
    endloop
  endfacet
  facet normal -0.104529 0 -0.994522
    outer loop
      vertex 87.5 10 15
      vertex 89.5791 70 14.7815
      vertex 89.5791 10 14.7815
    endloop
  endfacet
  facet normal -0.104529 0 -0.994522
    outer loop
      vertex 89.5791 70 14.7815
      vertex 87.5 10 15
      vertex 87.5 70 15
    endloop
  endfacet
  facet normal -0.978148 0 -0.207912
    outer loop
      vertex 97.4452 0 6.04528
      vertex 97.0106 60 8.09017
      vertex 97.4452 60 6.04528
    endloop
  endfacet
  facet normal -0.978148 -0 -0.207912
    outer loop
      vertex 97.0106 60 8.09017
      vertex 97.4452 0 6.04528
      vertex 97.0106 0 8.09017
    endloop
  endfacet
  facet normal -1 0 0
    outer loop
      vertex 97.4452 0 5
      vertex 97.4452 60 6.04528
      vertex 97.4452 60 5
    endloop
  endfacet
  facet normal -1 -0 0
    outer loop
      vertex 97.4452 60 6.04528
      vertex 97.4452 0 5
      vertex 97.4452 0 6.04528
    endloop
  endfacet
  facet normal -0.309017 0 -0.951057
    outer loop
      vertex 89.5791 10 14.7815
      vertex 91.5674 70 14.1355
      vertex 91.5674 10 14.1355
    endloop
  endfacet
  facet normal -0.309017 0 -0.951057
    outer loop
      vertex 91.5674 70 14.1355
      vertex 89.5791 10 14.7815
      vertex 89.5791 70 14.7815
    endloop
  endfacet
  facet normal -0.669131 0 -0.743145
    outer loop
      vertex 93.3779 10 13.0902
      vertex 94.9314 70 11.6913
      vertex 94.9314 10 11.6913
    endloop
  endfacet
  facet normal -0.669131 0 -0.743145
    outer loop
      vertex 94.9314 70 11.6913
      vertex 93.3779 10 13.0902
      vertex 93.3779 70 13.0902
    endloop
  endfacet
  facet normal -0.913545 0 -0.406737
    outer loop
      vertex 97.0106 60 8.09017
      vertex 96.1603 10 10
      vertex 96.1603 60 10
    endloop
  endfacet
  facet normal -0.913545 0 -0.406737
    outer loop
      vertex 97.0106 0 8.09017
      vertex 96.1603 10 10
      vertex 97.0106 60 8.09017
    endloop
  endfacet
  facet normal -0.913545 -0 -0.406737
    outer loop
      vertex 96.1603 10 10
      vertex 97.0106 0 8.09017
      vertex 96.1603 0 10
    endloop
  endfacet
  facet normal -0.809017 0 -0.587785
    outer loop
      vertex 96.1603 60 10
      vertex 94.9314 70 11.6913
      vertex 96.1603 70 10
    endloop
  endfacet
  facet normal -0.809017 0 -0.587785
    outer loop
      vertex 94.9314 10 11.6913
      vertex 96.1603 60 10
      vertex 96.1603 10 10
    endloop
  endfacet
  facet normal -0.809017 0 -0.587785
    outer loop
      vertex 96.1603 60 10
      vertex 94.9314 10 11.6913
      vertex 94.9314 70 11.6913
    endloop
  endfacet
  facet normal -0 0 1
    outer loop
      vertex 92.5 60 5
      vertex 97.4452 0 5
      vertex 97.4452 60 5
    endloop
  endfacet
  facet normal 0 0 1
    outer loop
      vertex 97.4452 0 5
      vertex 92.5 60 5
      vertex 92.5 0 5
    endloop
  endfacet
  facet normal -0 0 1
    outer loop
      vertex 77.5548 60 5
      vertex 82.5 0 5
      vertex 82.5 60 5
    endloop
  endfacet
  facet normal 0 0 1
    outer loop
      vertex 82.5 0 5
      vertex 77.5548 60 5
      vertex 77.5548 0 5
    endloop
  endfacet
  facet normal 1 0 0
    outer loop
      vertex 82.5 0 4.375
      vertex 82.5 60 5
      vertex 82.5 0 5
    endloop
  endfacet
  facet normal 1 0 0
    outer loop
      vertex 82.5 60 5
      vertex 82.5 0 4.375
      vertex 82.5 60 0.625
    endloop
  endfacet
  facet normal -1 0 0
    outer loop
      vertex 92.5 0 0
      vertex 92.5 60 5
      vertex 92.5 60 0
    endloop
  endfacet
  facet normal -1 -0 0
    outer loop
      vertex 92.5 60 5
      vertex 92.5 0 0
      vertex 92.5 0 5
    endloop
  endfacet
  facet normal 1 0 0
    outer loop
      vertex 82.5 0 0
      vertex 82.5 60 0.625
      vertex 82.5 0 4.375
    endloop
  endfacet
  facet normal 1 0 0
    outer loop
      vertex 82.5 60 0.625
      vertex 82.5 0 0
      vertex 82.5 60 0
    endloop
  endfacet
endsolid OpenSCAD_Model
