solid OpenSCAD_Model
  facet normal -1 0 0
    outer loop
      vertex 0 0 0
      vertex 0 60 10
      vertex 0 60 0
    endloop
  endfacet
  facet normal -1 -0 0
    outer loop
      vertex 0 60 10
      vertex 0 0 0
      vertex 0 0 10
    endloop
  endfacet
  facet normal 0 0 -1
    outer loop
      vertex 10 60 10
      vertex 42.0897 70 10
      vertex 42.0897 60 10
    endloop
  endfacet
  facet normal -0 0 -1
    outer loop
      vertex 42.0897 70 10
      vertex 10 60 10
      vertex 10 70 10
    endloop
  endfacet
  facet normal 0 0 1
    outer loop
      vertex 10 60 10
      vertex 0 60 10
      vertex 10 10 10
    endloop
  endfacet
  facet normal -0 0 1
    outer loop
      vertex 10 10 10
      vertex 42.0897 0 10
      vertex 42.0897 10 10
    endloop
  endfacet
  facet normal 0 0 1
    outer loop
      vertex 10 10 10
      vertex 0 0 10
      vertex 42.0897 0 10
    endloop
  endfacet
  facet normal 0 0 1
    outer loop
      vertex 0 0 10
      vertex 10 10 10
      vertex 0 60 10
    endloop
  endfacet
  facet normal 0 0 -1
    outer loop
      vertex 203 60 10
      vertex 213 10 10
      vertex 203 10 10
    endloop
  endfacet
  facet normal 0 0 -1
    outer loop
      vertex 213 10 10
      vertex 203 60 10
      vertex 213 70 10
    endloop
  endfacet
  facet normal 0 0 -1
    outer loop
      vertex 160.91 70 10
      vertex 203 60 10
      vertex 160.91 60 10
    endloop
  endfacet
  facet normal 0 0 -1
    outer loop
      vertex 203 60 10
      vertex 160.91 70 10
      vertex 213 70 10
    endloop
  endfacet
  facet normal -0 0 1
    outer loop
      vertex 160.91 10 10
      vertex 203 0 10
      vertex 203 10 10
    endloop
  endfacet
  facet normal 0 0 1
    outer loop
      vertex 203 0 10
      vertex 160.91 10 10
      vertex 160.91 0 10
    endloop
  endfacet
  facet normal -0 0 1
    outer loop
      vertex 59.4103 10 10
      vertex 143.59 0 10
      vertex 143.59 10 10
    endloop
  endfacet
  facet normal 0 0 1
    outer loop
      vertex 143.59 0 10
      vertex 59.4103 10 10
      vertex 59.4103 0 10
    endloop
  endfacet
  facet normal 0 0 -1
    outer loop
      vertex 59.4103 60 10
      vertex 143.59 70 10
      vertex 143.59 60 10
    endloop
  endfacet
  facet normal -0 0 -1
    outer loop
      vertex 143.59 70 10
      vertex 59.4103 60 10
      vertex 59.4103 70 10
    endloop
  endfacet
  facet normal 1 -0 0
    outer loop
      vertex 203 10 10
      vertex 203 60 0
      vertex 203 60 10
    endloop
  endfacet
  facet normal 1 0 0
    outer loop
      vertex 203 0 0
      vertex 203 10 10
      vertex 203 0 10
    endloop
  endfacet
  facet normal 1 0 0
    outer loop
      vertex 203 10 10
      vertex 203 0 0
      vertex 203 60 0
    endloop
  endfacet
  facet normal 0 0 -1
    outer loop
      vertex 0 0 0
      vertex 45.75 60 0
      vertex 45.75 0 0
    endloop
  endfacet
  facet normal -0 0 -1
    outer loop
      vertex 45.75 60 0
      vertex 0 0 0
      vertex 0 60 0
    endloop
  endfacet
  facet normal 0 0 -1
    outer loop
      vertex 157.25 0 0
      vertex 203 60 0
      vertex 203 0 0
    endloop
  endfacet
  facet normal -0 0 -1
    outer loop
      vertex 203 60 0
      vertex 157.25 0 0
      vertex 157.25 60 0
    endloop
  endfacet
  facet normal 0 0 -1
    outer loop
      vertex 55.75 0 0
      vertex 147.25 60 0
      vertex 147.25 0 0
    endloop
  endfacet
  facet normal -0 0 -1
    outer loop
      vertex 147.25 60 0
      vertex 55.75 0 0
      vertex 55.75 60 0
    endloop
  endfacet
  facet normal 0 -1 0
    outer loop
      vertex 0 0 10
      vertex 41.2394 0 8.09017
      vertex 42.0897 0 10
    endloop
  endfacet
  facet normal 0 -1 0
    outer loop
      vertex 0 0 10
      vertex 40.8048 0 6.04528
      vertex 41.2394 0 8.09017
    endloop
  endfacet
  facet normal 0 -1 0
    outer loop
      vertex 0 0 10
      vertex 40.8048 0 5
      vertex 40.8048 0 6.04528
    endloop
  endfacet
  facet normal 0 -1 0
    outer loop
      vertex 40.8048 0 5
      vertex 45.75 0 4.375
      vertex 45.75 0 5
    endloop
  endfacet
  facet normal 0 -1 0
    outer loop
      vertex 0 0 0
      vertex 40.8048 0 5
      vertex 0 0 10
    endloop
  endfacet
  facet normal 0 -1 0
    outer loop
      vertex 45.75 0 0
      vertex 40.8048 0 5
      vertex 0 0 0
    endloop
  endfacet
  facet normal 0 -1 0
    outer loop
      vertex 40.8048 0 5
      vertex 45.75 0 0
      vertex 45.75 0 4.375
    endloop
  endfacet
  facet normal 0 -1 0
    outer loop
      vertex 157.25 0 5
      vertex 157.25 0 0
      vertex 162.195 0 5
    endloop
  endfacet
  facet normal 0 -1 0
    outer loop
      vertex 161.761 0 8.09017
      vertex 203 0 10
      vertex 160.91 0 10
    endloop
  endfacet
  facet normal 0 -1 0
    outer loop
      vertex 162.195 0 6.04528
      vertex 203 0 10
      vertex 161.761 0 8.09017
    endloop
  endfacet
  facet normal 0 -1 0
    outer loop
      vertex 162.195 0 5
      vertex 203 0 10
      vertex 162.195 0 6.04528
    endloop
  endfacet
  facet normal 0 -1 0
    outer loop
      vertex 203 0 0
      vertex 162.195 0 5
      vertex 157.25 0 0
    endloop
  endfacet
  facet normal 0 -1 0
    outer loop
      vertex 162.195 0 5
      vertex 203 0 0
      vertex 203 0 10
    endloop
  endfacet
  facet normal 0 -1 0
    outer loop
      vertex 55.75 0 0
      vertex 60.6952 0 5
      vertex 55.75 0 5
    endloop
  endfacet
  facet normal 0 -1 -0
    outer loop
      vertex 60.6952 0 5
      vertex 55.75 0 0
      vertex 142.305 0 5
    endloop
  endfacet
  facet normal 0 -1 0
    outer loop
      vertex 142.305 0 5
      vertex 147.25 0 4.375
      vertex 147.25 0 5
    endloop
  endfacet
  facet normal 0 -1 0
    outer loop
      vertex 147.25 0 0
      vertex 142.305 0 5
      vertex 55.75 0 0
    endloop
  endfacet
  facet normal 0 -1 0
    outer loop
      vertex 142.305 0 5
      vertex 147.25 0 0
      vertex 147.25 0 4.375
    endloop
  endfacet
  facet normal 0 -1 0
    outer loop
      vertex 60.2606 0 8.09017
      vertex 143.59 0 10
      vertex 59.4103 0 10
    endloop
  endfacet
  facet normal 0 -1 0
    outer loop
      vertex 142.739 0 8.09017
      vertex 143.59 0 10
      vertex 60.2606 0 8.09017
    endloop
  endfacet
  facet normal 0 -1 0
    outer loop
      vertex 60.6952 0 6.04528
      vertex 142.739 0 8.09017
      vertex 60.2606 0 8.09017
    endloop
  endfacet
  facet normal 0 -1 0
    outer loop
      vertex 60.6952 0 6.04528
      vertex 142.305 0 6.04528
      vertex 142.739 0 8.09017
    endloop
  endfacet
  facet normal 0 -1 0
    outer loop
      vertex 60.6952 0 5
      vertex 142.305 0 6.04528
      vertex 60.6952 0 6.04528
    endloop
  endfacet
  facet normal 0 -1 -0
    outer loop
      vertex 142.305 0 6.04528
      vertex 60.6952 0 5
      vertex 142.305 0 5
    endloop
  endfacet
  facet normal 0 1 0
    outer loop
      vertex 203 60 10
      vertex 161.761 60 8.09017
      vertex 160.91 60 10
    endloop
  endfacet
  facet normal 0 1 0
    outer loop
      vertex 203 60 10
      vertex 162.195 60 6.04528
      vertex 161.761 60 8.09017
    endloop
  endfacet
  facet normal 0 1 0
    outer loop
      vertex 203 60 10
      vertex 162.195 60 5
      vertex 162.195 60 6.04528
    endloop
  endfacet
  facet normal 0 1 -0
    outer loop
      vertex 203 60 0
      vertex 162.195 60 5
      vertex 203 60 10
    endloop
  endfacet
  facet normal 0 1 0
    outer loop
      vertex 157.25 60 0
      vertex 162.195 60 5
      vertex 203 60 0
    endloop
  endfacet
  facet normal 0 1 0
    outer loop
      vertex 162.195 60 5
      vertex 157.25 60 0
      vertex 157.25 60 5
    endloop
  endfacet
  facet normal 0 1 0
    outer loop
      vertex 45.75 60 5
      vertex 45.75 60 0.625
      vertex 40.8048 60 5
    endloop
  endfacet
  facet normal 0 1 -0
    outer loop
      vertex 41.2394 60 8.09017
      vertex 10 60 10
      vertex 42.0897 60 10
    endloop
  endfacet
  facet normal 0 1 -0
    outer loop
      vertex 40.8048 60 6.04528
      vertex 10 60 10
      vertex 41.2394 60 8.09017
    endloop
  endfacet
  facet normal 0 1 -0
    outer loop
      vertex 40.8048 60 5
      vertex 10 60 10
      vertex 40.8048 60 6.04528
    endloop
  endfacet
  facet normal 0 1 0
    outer loop
      vertex 0 60 0
      vertex 10 60 10
      vertex 40.8048 60 5
    endloop
  endfacet
  facet normal 0 1 -0
    outer loop
      vertex 45.75 60 0
      vertex 40.8048 60 5
      vertex 45.75 60 0.625
    endloop
  endfacet
  facet normal 0 1 0
    outer loop
      vertex 40.8048 60 5
      vertex 45.75 60 0
      vertex 0 60 0
    endloop
  endfacet
  facet normal 0 1 0
    outer loop
      vertex 10 60 10
      vertex 0 60 0
      vertex 0 60 10
    endloop
  endfacet
  facet normal 0 1 -0
    outer loop
      vertex 147.25 60 0.625
      vertex 142.305 60 5
      vertex 147.25 60 5
    endloop
  endfacet
  facet normal 0 1 -0
    outer loop
      vertex 147.25 60 0
      vertex 142.305 60 5
      vertex 147.25 60 0.625
    endloop
  endfacet
  facet normal 0 1 0
    outer loop
      vertex 142.305 60 5
      vertex 147.25 60 0
      vertex 60.6952 60 5
    endloop
  endfacet
  facet normal 0 1 0
    outer loop
      vertex 60.6952 60 5
      vertex 147.25 60 0
      vertex 55.75 60 0
    endloop
  endfacet
  facet normal 0 1 0
    outer loop
      vertex 60.6952 60 5
      vertex 55.75 60 0
      vertex 55.75 60 5
    endloop
  endfacet
  facet normal 0 1 0
    outer loop
      vertex 143.59 60 10
      vertex 142.739 60 8.09017
      vertex 59.4103 60 10
    endloop
  endfacet
  facet normal 0 1 0
    outer loop
      vertex 142.739 60 8.09017
      vertex 60.2606 60 8.09017
      vertex 59.4103 60 10
    endloop
  endfacet
  facet normal 0 1 -0
    outer loop
      vertex 142.305 60 6.04528
      vertex 60.2606 60 8.09017
      vertex 142.739 60 8.09017
    endloop
  endfacet
  facet normal 0 1 0
    outer loop
      vertex 142.305 60 6.04528
      vertex 60.6952 60 6.04528
      vertex 60.2606 60 8.09017
    endloop
  endfacet
  facet normal 0 1 -0
    outer loop
      vertex 142.305 60 5
      vertex 60.6952 60 6.04528
      vertex 142.305 60 6.04528
    endloop
  endfacet
  facet normal 0 1 0
    outer loop
      vertex 60.6952 60 6.04528
      vertex 142.305 60 5
      vertex 60.6952 60 5
    endloop
  endfacet
  facet normal -1 0 0
    outer loop
      vertex 10 60 10
      vertex 10 70 20
      vertex 10 70 10
    endloop
  endfacet
  facet normal -1 0 0
    outer loop
      vertex 10 10 20
      vertex 10 60 10
      vertex 10 10 10
    endloop
  endfacet
  facet normal -1 0 0
    outer loop
      vertex 10 60 10
      vertex 10 10 20
      vertex 10 70 20
    endloop
  endfacet
  facet normal -0 0 1
    outer loop
      vertex 10 70 20
      vertex 213 10 20
      vertex 213 70 20
    endloop
  endfacet
  facet normal 0 0 1
    outer loop
      vertex 213 10 20
      vertex 10 70 20
      vertex 10 10 20
    endloop
  endfacet
  facet normal 1 -0 0
    outer loop
      vertex 213 10 20
      vertex 213 70 10
      vertex 213 70 20
    endloop
  endfacet
  facet normal 1 0 0
    outer loop
      vertex 213 70 10
      vertex 213 10 20
      vertex 213 10 10
    endloop
  endfacet
  facet normal 0 -1 0
    outer loop
      vertex 52.8291 10 14.7815
      vertex 152.25 10 15
      vertex 50.75 10 15
    endloop
  endfacet
  facet normal 0 -1 0
    outer loop
      vertex 52.8291 10 14.7815
      vertex 150.171 10 14.7815
      vertex 152.25 10 15
    endloop
  endfacet
  facet normal 0 -1 0
    outer loop
      vertex 54.8174 10 14.1355
      vertex 150.171 10 14.7815
      vertex 52.8291 10 14.7815
    endloop
  endfacet
  facet normal 0 -1 0
    outer loop
      vertex 54.8174 10 14.1355
      vertex 148.183 10 14.1355
      vertex 150.171 10 14.7815
    endloop
  endfacet
  facet normal 0 -1 0
    outer loop
      vertex 56.6279 10 13.0902
      vertex 148.183 10 14.1355
      vertex 54.8174 10 14.1355
    endloop
  endfacet
  facet normal 0 -1 0
    outer loop
      vertex 56.6279 10 13.0902
      vertex 146.372 10 13.0902
      vertex 148.183 10 14.1355
    endloop
  endfacet
  facet normal 0 -1 0
    outer loop
      vertex 58.1814 10 11.6913
      vertex 146.372 10 13.0902
      vertex 56.6279 10 13.0902
    endloop
  endfacet
  facet normal 0 -1 0
    outer loop
      vertex 58.1814 10 11.6913
      vertex 144.819 10 11.6913
      vertex 146.372 10 13.0902
    endloop
  endfacet
  facet normal 0 -1 0
    outer loop
      vertex 59.4103 10 10
      vertex 144.819 10 11.6913
      vertex 58.1814 10 11.6913
    endloop
  endfacet
  facet normal 0 -1 0
    outer loop
      vertex 144.819 10 11.6913
      vertex 59.4103 10 10
      vertex 143.59 10 10
    endloop
  endfacet
  facet normal 0 -1 0
    outer loop
      vertex 152.25 10 15
      vertex 10 10 20
      vertex 50.75 10 15
    endloop
  endfacet
  facet normal 0 -1 0
    outer loop
      vertex 10 10 20
      vertex 48.6709 10 14.7815
      vertex 50.75 10 15
    endloop
  endfacet
  facet normal 0 -1 0
    outer loop
      vertex 10 10 20
      vertex 46.6826 10 14.1355
      vertex 48.6709 10 14.7815
    endloop
  endfacet
  facet normal 0 -1 0
    outer loop
      vertex 10 10 20
      vertex 44.8721 10 13.0902
      vertex 46.6826 10 14.1355
    endloop
  endfacet
  facet normal 0 -1 0
    outer loop
      vertex 10 10 20
      vertex 43.3186 10 11.6913
      vertex 44.8721 10 13.0902
    endloop
  endfacet
  facet normal 0 -1 0
    outer loop
      vertex 42.0897 10 10
      vertex 10 10 20
      vertex 10 10 10
    endloop
  endfacet
  facet normal 0 -1 0
    outer loop
      vertex 10 10 20
      vertex 42.0897 10 10
      vertex 43.3186 10 11.6913
    endloop
  endfacet
  facet normal 0 -1 0
    outer loop
      vertex 10 10 20
      vertex 152.25 10 15
      vertex 213 10 20
    endloop
  endfacet
  facet normal 0 -1 0
    outer loop
      vertex 154.329 10 14.7815
      vertex 213 10 20
      vertex 152.25 10 15
    endloop
  endfacet
  facet normal 0 -1 0
    outer loop
      vertex 156.317 10 14.1355
      vertex 213 10 20
      vertex 154.329 10 14.7815
    endloop
  endfacet
  facet normal 0 -1 0
    outer loop
      vertex 158.128 10 13.0902
      vertex 213 10 20
      vertex 156.317 10 14.1355
    endloop
  endfacet
  facet normal 0 -1 0
    outer loop
      vertex 203 10 10
      vertex 158.128 10 13.0902
      vertex 159.681 10 11.6913
    endloop
  endfacet
  facet normal 0 -1 0
    outer loop
      vertex 203 10 10
      vertex 159.681 10 11.6913
      vertex 160.91 10 10
    endloop
  endfacet
  facet normal 0 -1 0
    outer loop
      vertex 158.128 10 13.0902
      vertex 203 10 10
      vertex 213 10 20
    endloop
  endfacet
  facet normal 0 -1 -0
    outer loop
      vertex 213 10 20
      vertex 203 10 10
      vertex 213 10 10
    endloop
  endfacet
  facet normal 0 1 -0
    outer loop
      vertex 150.171 70 14.7815
      vertex 50.75 70 15
      vertex 152.25 70 15
    endloop
  endfacet
  facet normal 0 1 0
    outer loop
      vertex 150.171 70 14.7815
      vertex 52.8291 70 14.7815
      vertex 50.75 70 15
    endloop
  endfacet
  facet normal 0 1 -0
    outer loop
      vertex 148.183 70 14.1355
      vertex 52.8291 70 14.7815
      vertex 150.171 70 14.7815
    endloop
  endfacet
  facet normal 0 1 0
    outer loop
      vertex 148.183 70 14.1355
      vertex 54.8174 70 14.1355
      vertex 52.8291 70 14.7815
    endloop
  endfacet
  facet normal 0 1 -0
    outer loop
      vertex 146.372 70 13.0902
      vertex 54.8174 70 14.1355
      vertex 148.183 70 14.1355
    endloop
  endfacet
  facet normal 0 1 0
    outer loop
      vertex 146.372 70 13.0902
      vertex 56.6279 70 13.0902
      vertex 54.8174 70 14.1355
    endloop
  endfacet
  facet normal 0 1 -0
    outer loop
      vertex 144.819 70 11.6913
      vertex 56.6279 70 13.0902
      vertex 146.372 70 13.0902
    endloop
  endfacet
  facet normal 0 1 0
    outer loop
      vertex 144.819 70 11.6913
      vertex 58.1814 70 11.6913
      vertex 56.6279 70 13.0902
    endloop
  endfacet
  facet normal 0 1 -0
    outer loop
      vertex 143.59 70 10
      vertex 58.1814 70 11.6913
      vertex 144.819 70 11.6913
    endloop
  endfacet
  facet normal 0 1 0
    outer loop
      vertex 58.1814 70 11.6913
      vertex 143.59 70 10
      vertex 59.4103 70 10
    endloop
  endfacet
  facet normal 0 1 0
    outer loop
      vertex 192.533 70 17.0473
      vertex 154.329 70 14.7815
      vertex 152.25 70 15
    endloop
  endfacet
  facet normal 0 1 0
    outer loop
      vertex 192.533 70 17.0473
      vertex 156.317 70 14.1355
      vertex 154.329 70 14.7815
    endloop
  endfacet
  facet normal 0 1 0
    outer loop
      vertex 160.91 70 10
      vertex 191.108 70 15.9112
      vertex 191.108 70 14.0888
    endloop
  endfacet
  facet normal 0 1 0
    outer loop
      vertex 191.108 70 15.9112
      vertex 158.128 70 13.0902
      vertex 156.317 70 14.1355
    endloop
  endfacet
  facet normal 0 1 0
    outer loop
      vertex 160.91 70 10
      vertex 191.108 70 14.0888
      vertex 192.533 70 12.9527
    endloop
  endfacet
  facet normal 0 1 0
    outer loop
      vertex 191.108 70 15.9112
      vertex 159.681 70 11.6913
      vertex 158.128 70 13.0902
    endloop
  endfacet
  facet normal 0 1 -0
    outer loop
      vertex 50.75 70 15
      vertex 10 70 20
      vertex 152.25 70 15
    endloop
  endfacet
  facet normal 0 1 0
    outer loop
      vertex 156.317 70 14.1355
      vertex 192.533 70 17.0473
      vertex 191.108 70 15.9112
    endloop
  endfacet
  facet normal 0 1 0
    outer loop
      vertex 10 70 20
      vertex 50.75 70 15
      vertex 29.5327 70 17.0473
    endloop
  endfacet
  facet normal 0 1 0
    outer loop
      vertex 29.5327 70 17.0473
      vertex 50.75 70 15
      vertex 31.3093 70 16.6418
    endloop
  endfacet
  facet normal 0 1 -0
    outer loop
      vertex 48.6709 70 14.7815
      vertex 31.3093 70 16.6418
      vertex 50.75 70 15
    endloop
  endfacet
  facet normal 0 1 -0
    outer loop
      vertex 46.6826 70 14.1355
      vertex 31.3093 70 16.6418
      vertex 48.6709 70 14.7815
    endloop
  endfacet
  facet normal 0 1 -0
    outer loop
      vertex 44.8721 70 13.0902
      vertex 31.3093 70 16.6418
      vertex 46.6826 70 14.1355
    endloop
  endfacet
  facet normal 0 1 0
    outer loop
      vertex 31.3093 70 16.6418
      vertex 44.8721 70 13.0902
      vertex 32.1 70 15
    endloop
  endfacet
  facet normal 0 1 -0
    outer loop
      vertex 43.3186 70 11.6913
      vertex 32.1 70 15
      vertex 44.8721 70 13.0902
    endloop
  endfacet
  facet normal 0 1 -0
    outer loop
      vertex 42.0897 70 10
      vertex 32.1 70 15
      vertex 43.3186 70 11.6913
    endloop
  endfacet
  facet normal 0 1 0
    outer loop
      vertex 32.1 70 15
      vertex 42.0897 70 10
      vertex 31.3093 70 13.3582
    endloop
  endfacet
  facet normal 0 1 0
    outer loop
      vertex 152.25 70 15
      vertex 213 70 20
      vertex 192.533 70 17.0473
    endloop
  endfacet
  facet normal 0 1 0
    outer loop
      vertex 213 70 20
      vertex 194.309 70 16.6418
      vertex 192.533 70 17.0473
    endloop
  endfacet
  facet normal 0 1 0
    outer loop
      vertex 213 70 20
      vertex 195.1 70 15
      vertex 194.309 70 16.6418
    endloop
  endfacet
  facet normal 0 1 -0
    outer loop
      vertex 213 70 10
      vertex 195.1 70 15
      vertex 213 70 20
    endloop
  endfacet
  facet normal 0 1 0
    outer loop
      vertex 195.1 70 15
      vertex 213 70 10
      vertex 194.309 70 13.3582
    endloop
  endfacet
  facet normal 0 1 0
    outer loop
      vertex 213 70 10
      vertex 192.533 70 12.9527
      vertex 194.309 70 13.3582
    endloop
  endfacet
  facet normal 0 1 0
    outer loop
      vertex 160.91 70 10
      vertex 192.533 70 12.9527
      vertex 213 70 10
    endloop
  endfacet
  facet normal 0 1 0
    outer loop
      vertex 191.108 70 15.9112
      vertex 160.91 70 10
      vertex 159.681 70 11.6913
    endloop
  endfacet
  facet normal 0 1 0
    outer loop
      vertex 213 70 20
      vertex 152.25 70 15
      vertex 10 70 20
    endloop
  endfacet
  facet normal 0 1 -0
    outer loop
      vertex 28.108 70 15.9112
      vertex 10 70 20
      vertex 29.5327 70 17.0473
    endloop
  endfacet
  facet normal 0 1 -0
    outer loop
      vertex 28.108 70 14.0888
      vertex 10 70 20
      vertex 28.108 70 15.9112
    endloop
  endfacet
  facet normal 0 1 0
    outer loop
      vertex 10 70 10
      vertex 28.108 70 14.0888
      vertex 29.5327 70 12.9527
    endloop
  endfacet
  facet normal 0 1 0
    outer loop
      vertex 31.3093 70 13.3582
      vertex 42.0897 70 10
      vertex 29.5327 70 12.9527
    endloop
  endfacet
  facet normal 0 1 0
    outer loop
      vertex 28.108 70 14.0888
      vertex 10 70 10
      vertex 10 70 20
    endloop
  endfacet
  facet normal 0 1 0
    outer loop
      vertex 10 70 10
      vertex 29.5327 70 12.9527
      vertex 42.0897 70 10
    endloop
  endfacet
  facet normal -1 0 0
    outer loop
      vertex 60.6952 0 5
      vertex 60.6952 60 6.04528
      vertex 60.6952 60 5
    endloop
  endfacet
  facet normal -1 -0 0
    outer loop
      vertex 60.6952 60 6.04528
      vertex 60.6952 0 5
      vertex 60.6952 0 6.04528
    endloop
  endfacet
  facet normal 0.669131 0 -0.743145
    outer loop
      vertex 43.3186 10 11.6913
      vertex 44.8721 70 13.0902
      vertex 44.8721 10 13.0902
    endloop
  endfacet
  facet normal 0.669131 0 -0.743145
    outer loop
      vertex 44.8721 70 13.0902
      vertex 43.3186 10 11.6913
      vertex 43.3186 70 11.6913
    endloop
  endfacet
  facet normal 0.5 0 -0.866025
    outer loop
      vertex 44.8721 10 13.0902
      vertex 46.6826 70 14.1355
      vertex 46.6826 10 14.1355
    endloop
  endfacet
  facet normal 0.5 0 -0.866025
    outer loop
      vertex 46.6826 70 14.1355
      vertex 44.8721 10 13.0902
      vertex 44.8721 70 13.0902
    endloop
  endfacet
  facet normal 0.309017 0 -0.951057
    outer loop
      vertex 46.6826 10 14.1355
      vertex 48.6709 70 14.7815
      vertex 48.6709 10 14.7815
    endloop
  endfacet
  facet normal 0.309017 0 -0.951057
    outer loop
      vertex 48.6709 70 14.7815
      vertex 46.6826 10 14.1355
      vertex 46.6826 70 14.1355
    endloop
  endfacet
  facet normal 0.809018 0 -0.587784
    outer loop
      vertex 43.3186 70 11.6913
      vertex 42.0897 60 10
      vertex 42.0897 70 10
    endloop
  endfacet
  facet normal 0.809018 0 -0.587784
    outer loop
      vertex 43.3186 10 11.6913
      vertex 42.0897 60 10
      vertex 43.3186 70 11.6913
    endloop
  endfacet
  facet normal 0.809018 0 -0.587784
    outer loop
      vertex 42.0897 10 10
      vertex 42.0897 60 10
      vertex 43.3186 10 11.6913
    endloop
  endfacet
  facet normal 0.242536 0 -0.970143
    outer loop
      vertex 42.0897 10 10
      vertex 42.0897 0 10
      vertex 42.0897 60 10
    endloop
  endfacet
  facet normal 0.978148 0 -0.20791
    outer loop
      vertex 41.2394 0 8.09017
      vertex 40.8048 60 6.04528
      vertex 41.2394 60 8.09017
    endloop
  endfacet
  facet normal 0.978148 0 -0.20791
    outer loop
      vertex 40.8048 60 6.04528
      vertex 41.2394 0 8.09017
      vertex 40.8048 0 6.04528
    endloop
  endfacet
  facet normal 1 -0 0
    outer loop
      vertex 40.8048 0 6.04528
      vertex 40.8048 60 5
      vertex 40.8048 60 6.04528
    endloop
  endfacet
  facet normal 1 0 0
    outer loop
      vertex 40.8048 60 5
      vertex 40.8048 0 6.04528
      vertex 40.8048 0 5
    endloop
  endfacet
  facet normal 0.104529 0 -0.994522
    outer loop
      vertex 48.6709 10 14.7815
      vertex 50.75 70 15
      vertex 50.75 10 15
    endloop
  endfacet
  facet normal 0.104529 0 -0.994522
    outer loop
      vertex 50.75 70 15
      vertex 48.6709 10 14.7815
      vertex 48.6709 70 14.7815
    endloop
  endfacet
  facet normal 0.913545 0 -0.406737
    outer loop
      vertex 42.0897 0 10
      vertex 41.2394 60 8.09017
      vertex 42.0897 60 10
    endloop
  endfacet
  facet normal 0.913545 0 -0.406737
    outer loop
      vertex 41.2394 60 8.09017
      vertex 42.0897 0 10
      vertex 41.2394 0 8.09017
    endloop
  endfacet
  facet normal -0.5 0 -0.866025
    outer loop
      vertex 54.8174 10 14.1355
      vertex 56.6279 70 13.0902
      vertex 56.6279 10 13.0902
    endloop
  endfacet
  facet normal -0.5 0 -0.866025
    outer loop
      vertex 56.6279 70 13.0902
      vertex 54.8174 10 14.1355
      vertex 54.8174 70 14.1355
    endloop
  endfacet
  facet normal -0.978148 0 -0.20791
    outer loop
      vertex 60.6952 0 6.04528
      vertex 60.2606 60 8.09017
      vertex 60.6952 60 6.04528
    endloop
  endfacet
  facet normal -0.978148 -0 -0.20791
    outer loop
      vertex 60.2606 60 8.09017
      vertex 60.6952 0 6.04528
      vertex 60.2606 0 8.09017
    endloop
  endfacet
  facet normal -0.913545 0 -0.406737
    outer loop
      vertex 60.2606 60 8.09017
      vertex 59.4103 10 10
      vertex 59.4103 60 10
    endloop
  endfacet
  facet normal -0.913545 0 -0.406737
    outer loop
      vertex 60.2606 0 8.09017
      vertex 59.4103 10 10
      vertex 60.2606 60 8.09017
    endloop
  endfacet
  facet normal -0.913545 -0 -0.406737
    outer loop
      vertex 59.4103 10 10
      vertex 60.2606 0 8.09017
      vertex 59.4103 0 10
    endloop
  endfacet
  facet normal -0.669131 0 -0.743145
    outer loop
      vertex 56.6279 10 13.0902
      vertex 58.1814 70 11.6913
      vertex 58.1814 10 11.6913
    endloop
  endfacet
  facet normal -0.669131 0 -0.743145
    outer loop
      vertex 58.1814 70 11.6913
      vertex 56.6279 10 13.0902
      vertex 56.6279 70 13.0902
    endloop
  endfacet
  facet normal -0.309017 0 -0.951057
    outer loop
      vertex 52.8291 10 14.7815
      vertex 54.8174 70 14.1355
      vertex 54.8174 10 14.1355
    endloop
  endfacet
  facet normal -0.309017 0 -0.951057
    outer loop
      vertex 54.8174 70 14.1355
      vertex 52.8291 10 14.7815
      vertex 52.8291 70 14.7815
    endloop
  endfacet
  facet normal -0.104529 0 -0.994522
    outer loop
      vertex 50.75 10 15
      vertex 52.8291 70 14.7815
      vertex 52.8291 10 14.7815
    endloop
  endfacet
  facet normal -0.104529 0 -0.994522
    outer loop
      vertex 52.8291 70 14.7815
      vertex 50.75 10 15
      vertex 50.75 70 15
    endloop
  endfacet
  facet normal -0.809017 0 -0.587785
    outer loop
      vertex 59.4103 60 10
      vertex 58.1814 70 11.6913
      vertex 59.4103 70 10
    endloop
  endfacet
  facet normal -0.809017 0 -0.587785
    outer loop
      vertex 58.1814 10 11.6913
      vertex 59.4103 60 10
      vertex 59.4103 10 10
    endloop
  endfacet
  facet normal -0.809017 0 -0.587785
    outer loop
      vertex 59.4103 60 10
      vertex 58.1814 10 11.6913
      vertex 58.1814 70 11.6913
    endloop
  endfacet
  facet normal -0 0 1
    outer loop
      vertex 55.75 60 5
      vertex 60.6952 0 5
      vertex 60.6952 60 5
    endloop
  endfacet
  facet normal 0 0 1
    outer loop
      vertex 60.6952 0 5
      vertex 55.75 60 5
      vertex 55.75 0 5
    endloop
  endfacet
  facet normal -0 0 1
    outer loop
      vertex 40.8048 60 5
      vertex 45.75 0 5
      vertex 45.75 60 5
    endloop
  endfacet
  facet normal 0 0 1
    outer loop
      vertex 45.75 0 5
      vertex 40.8048 60 5
      vertex 40.8048 0 5
    endloop
  endfacet
  facet normal 1 0 0
    outer loop
      vertex 45.75 0 4.375
      vertex 45.75 60 5
      vertex 45.75 0 5
    endloop
  endfacet
  facet normal 1 0 0
    outer loop
      vertex 45.75 60 5
      vertex 45.75 0 4.375
      vertex 45.75 60 0.625
    endloop
  endfacet
  facet normal -1 0 0
    outer loop
      vertex 55.75 0 0
      vertex 55.75 60 5
      vertex 55.75 60 0
    endloop
  endfacet
  facet normal -1 -0 0
    outer loop
      vertex 55.75 60 5
      vertex 55.75 0 0
      vertex 55.75 0 5
    endloop
  endfacet
  facet normal 1 0 0
    outer loop
      vertex 45.75 0 0
      vertex 45.75 60 0.625
      vertex 45.75 0 4.375
    endloop
  endfacet
  facet normal 1 0 0
    outer loop
      vertex 45.75 60 0.625
      vertex 45.75 0 0
      vertex 45.75 60 0
    endloop
  endfacet
  facet normal -1 0 0
    outer loop
      vertex 162.195 0 5
      vertex 162.195 60 6.04528
      vertex 162.195 60 5
    endloop
  endfacet
  facet normal -1 -0 0
    outer loop
      vertex 162.195 60 6.04528
      vertex 162.195 0 5
      vertex 162.195 0 6.04528
    endloop
  endfacet
  facet normal 0.669132 0 -0.743143
    outer loop
      vertex 144.819 10 11.6913
      vertex 146.372 70 13.0902
      vertex 146.372 10 13.0902
    endloop
  endfacet
  facet normal 0.669132 0 -0.743143
    outer loop
      vertex 146.372 70 13.0902
      vertex 144.819 10 11.6913
      vertex 144.819 70 11.6913
    endloop
  endfacet
  facet normal 0.5 0 -0.866025
    outer loop
      vertex 146.372 10 13.0902
      vertex 148.183 70 14.1355
      vertex 148.183 10 14.1355
    endloop
  endfacet
  facet normal 0.5 0 -0.866025
    outer loop
      vertex 148.183 70 14.1355
      vertex 146.372 10 13.0902
      vertex 146.372 70 13.0902
    endloop
  endfacet
  facet normal 0.309017 0 -0.951057
    outer loop
      vertex 148.183 10 14.1355
      vertex 150.171 70 14.7815
      vertex 150.171 10 14.7815
    endloop
  endfacet
  facet normal 0.309017 0 -0.951057
    outer loop
      vertex 150.171 70 14.7815
      vertex 148.183 10 14.1355
      vertex 148.183 70 14.1355
    endloop
  endfacet
  facet normal 0.809017 0 -0.587785
    outer loop
      vertex 144.819 70 11.6913
      vertex 143.59 60 10
      vertex 143.59 70 10
    endloop
  endfacet
  facet normal 0.809017 0 -0.587785
    outer loop
      vertex 144.819 10 11.6913
      vertex 143.59 60 10
      vertex 144.819 70 11.6913
    endloop
  endfacet
  facet normal 0.809017 0 -0.587785
    outer loop
      vertex 143.59 10 10
      vertex 143.59 60 10
      vertex 144.819 10 11.6913
    endloop
  endfacet
  facet normal 1 0 0
    outer loop
      vertex 143.59 10 10
      vertex 143.59 0 10
      vertex 143.59 60 10
    endloop
  endfacet
  facet normal 0.978147 0 -0.207915
    outer loop
      vertex 142.739 0 8.09017
      vertex 142.305 60 6.04528
      vertex 142.739 60 8.09017
    endloop
  endfacet
  facet normal 0.978147 0 -0.207915
    outer loop
      vertex 142.305 60 6.04528
      vertex 142.739 0 8.09017
      vertex 142.305 0 6.04528
    endloop
  endfacet
  facet normal 1 -0 0
    outer loop
      vertex 142.305 0 6.04528
      vertex 142.305 60 5
      vertex 142.305 60 6.04528
    endloop
  endfacet
  facet normal 1 0 0
    outer loop
      vertex 142.305 60 5
      vertex 142.305 0 6.04528
      vertex 142.305 0 5
    endloop
  endfacet
  facet normal 0.104529 0 -0.994522
    outer loop
      vertex 150.171 10 14.7815
      vertex 152.25 70 15
      vertex 152.25 10 15
    endloop
  endfacet
  facet normal 0.104529 0 -0.994522
    outer loop
      vertex 152.25 70 15
      vertex 150.171 10 14.7815
      vertex 150.171 70 14.7815
    endloop
  endfacet
  facet normal 0.913545 0 -0.406737
    outer loop
      vertex 143.59 0 10
      vertex 142.739 60 8.09017
      vertex 143.59 60 10
    endloop
  endfacet
  facet normal 0.913545 0 -0.406737
    outer loop
      vertex 142.739 60 8.09017
      vertex 143.59 0 10
      vertex 142.739 0 8.09017
    endloop
  endfacet
  facet normal -0.5 0 -0.866025
    outer loop
      vertex 156.317 10 14.1355
      vertex 158.128 70 13.0902
      vertex 158.128 10 13.0902
    endloop
  endfacet
  facet normal -0.5 0 -0.866025
    outer loop
      vertex 158.128 70 13.0902
      vertex 156.317 10 14.1355
      vertex 156.317 70 14.1355
    endloop
  endfacet
  facet normal -0.978147 0 -0.207915
    outer loop
      vertex 162.195 0 6.04528
      vertex 161.761 60 8.09017
      vertex 162.195 60 6.04528
    endloop
  endfacet
  facet normal -0.978147 -0 -0.207915
    outer loop
      vertex 161.761 60 8.09017
      vertex 162.195 0 6.04528
      vertex 161.761 0 8.09017
    endloop
  endfacet
  facet normal -0.913545 0 -0.406737
    outer loop
      vertex 161.761 60 8.09017
      vertex 160.91 10 10
      vertex 160.91 60 10
    endloop
  endfacet
  facet normal -0.913545 0 -0.406737
    outer loop
      vertex 161.761 0 8.09017
      vertex 160.91 10 10
      vertex 161.761 60 8.09017
    endloop
  endfacet
  facet normal -0.913545 -0 -0.406737
    outer loop
      vertex 160.91 10 10
      vertex 161.761 0 8.09017
      vertex 160.91 0 10
    endloop
  endfacet
  facet normal -0.669132 0 -0.743143
    outer loop
      vertex 158.128 10 13.0902
      vertex 159.681 70 11.6913
      vertex 159.681 10 11.6913
    endloop
  endfacet
  facet normal -0.669132 0 -0.743143
    outer loop
      vertex 159.681 70 11.6913
      vertex 158.128 10 13.0902
      vertex 158.128 70 13.0902
    endloop
  endfacet
  facet normal -0.309017 0 -0.951057
    outer loop
      vertex 154.329 10 14.7815
      vertex 156.317 70 14.1355
      vertex 156.317 10 14.1355
    endloop
  endfacet
  facet normal -0.309017 0 -0.951057
    outer loop
      vertex 156.317 70 14.1355
      vertex 154.329 10 14.7815
      vertex 154.329 70 14.7815
    endloop
  endfacet
  facet normal -0.104529 0 -0.994522
    outer loop
      vertex 152.25 10 15
      vertex 154.329 70 14.7815
      vertex 154.329 10 14.7815
    endloop
  endfacet
  facet normal -0.104529 0 -0.994522
    outer loop
      vertex 154.329 70 14.7815
      vertex 152.25 10 15
      vertex 152.25 70 15
    endloop
  endfacet
  facet normal -0.809017 0 -0.587785
    outer loop
      vertex 160.91 60 10
      vertex 159.681 70 11.6913
      vertex 160.91 70 10
    endloop
  endfacet
  facet normal -0.809017 0 -0.587785
    outer loop
      vertex 159.681 10 11.6913
      vertex 160.91 60 10
      vertex 160.91 10 10
    endloop
  endfacet
  facet normal -0.809017 0 -0.587785
    outer loop
      vertex 160.91 60 10
      vertex 159.681 10 11.6913
      vertex 159.681 70 11.6913
    endloop
  endfacet
  facet normal -0 0 1
    outer loop
      vertex 157.25 60 5
      vertex 162.195 0 5
      vertex 162.195 60 5
    endloop
  endfacet
  facet normal 0 0 1
    outer loop
      vertex 162.195 0 5
      vertex 157.25 60 5
      vertex 157.25 0 5
    endloop
  endfacet
  facet normal -0 0 1
    outer loop
      vertex 142.305 60 5
      vertex 147.25 0 5
      vertex 147.25 60 5
    endloop
  endfacet
  facet normal 0 0 1
    outer loop
      vertex 147.25 0 5
      vertex 142.305 60 5
      vertex 142.305 0 5
    endloop
  endfacet
  facet normal 1 0 0
    outer loop
      vertex 147.25 0 4.375
      vertex 147.25 60 5
      vertex 147.25 0 5
    endloop
  endfacet
  facet normal 1 0 0
    outer loop
      vertex 147.25 60 5
      vertex 147.25 0 4.375
      vertex 147.25 60 0.625
    endloop
  endfacet
  facet normal -1 0 0
    outer loop
      vertex 157.25 0 0
      vertex 157.25 60 5
      vertex 157.25 60 0
    endloop
  endfacet
  facet normal -1 -0 0
    outer loop
      vertex 157.25 60 5
      vertex 157.25 0 0
      vertex 157.25 0 5
    endloop
  endfacet
  facet normal 1 0 0
    outer loop
      vertex 147.25 0 0
      vertex 147.25 60 0.625
      vertex 147.25 0 4.375
    endloop
  endfacet
  facet normal 1 0 0
    outer loop
      vertex 147.25 60 0.625
      vertex 147.25 0 0
      vertex 147.25 60 0
    endloop
  endfacet
  facet normal -0.900967 0 -0.433887
    outer loop
      vertex 195.1 50 15
      vertex 194.309 70 16.6418
      vertex 195.1 70 15
    endloop
  endfacet
  facet normal -0.900967 -0 -0.433887
    outer loop
      vertex 194.309 70 16.6418
      vertex 195.1 50 15
      vertex 194.309 50 16.6418
    endloop
  endfacet
  facet normal -0.22252 0 -0.974928
    outer loop
      vertex 192.533 50 17.0473
      vertex 194.309 70 16.6418
      vertex 194.309 50 16.6418
    endloop
  endfacet
  facet normal -0.22252 0 -0.974928
    outer loop
      vertex 194.309 70 16.6418
      vertex 192.533 50 17.0473
      vertex 192.533 70 17.0473
    endloop
  endfacet
  facet normal 1 -0 0
    outer loop
      vertex 191.108 50 15.9112
      vertex 191.108 70 14.0888
      vertex 191.108 70 15.9112
    endloop
  endfacet
  facet normal 1 0 0
    outer loop
      vertex 191.108 70 14.0888
      vertex 191.108 50 15.9112
      vertex 191.108 50 14.0888
    endloop
  endfacet
  facet normal 0.623493 0 -0.781829
    outer loop
      vertex 191.108 50 15.9112
      vertex 192.533 70 17.0473
      vertex 192.533 50 17.0473
    endloop
  endfacet
  facet normal 0.623493 0 -0.781829
    outer loop
      vertex 192.533 70 17.0473
      vertex 191.108 50 15.9112
      vertex 191.108 70 15.9112
    endloop
  endfacet
  facet normal -0.900967 0 0.433888
    outer loop
      vertex 194.309 50 13.3582
      vertex 195.1 70 15
      vertex 194.309 70 13.3582
    endloop
  endfacet
  facet normal -0.900967 0 0.433888
    outer loop
      vertex 195.1 70 15
      vertex 194.309 50 13.3582
      vertex 195.1 50 15
    endloop
  endfacet
  facet normal 0.623493 0 0.781829
    outer loop
      vertex 191.108 70 14.0888
      vertex 192.533 50 12.9527
      vertex 192.533 70 12.9527
    endloop
  endfacet
  facet normal 0.623493 0 0.781829
    outer loop
      vertex 192.533 50 12.9527
      vertex 191.108 70 14.0888
      vertex 191.108 50 14.0888
    endloop
  endfacet
  facet normal -0.22252 0 0.974928
    outer loop
      vertex 192.533 70 12.9527
      vertex 194.309 50 13.3582
      vertex 194.309 70 13.3582
    endloop
  endfacet
  facet normal -0.22252 0 0.974928
    outer loop
      vertex 194.309 50 13.3582
      vertex 192.533 70 12.9527
      vertex 192.533 50 12.9527
    endloop
  endfacet
  facet normal 0 1 0
    outer loop
      vertex 194.309 50 16.6418
      vertex 191.108 50 15.9112
      vertex 192.533 50 17.0473
    endloop
  endfacet
  facet normal 0 1 0
    outer loop
      vertex 195.1 50 15
      vertex 191.108 50 15.9112
      vertex 194.309 50 16.6418
    endloop
  endfacet
  facet normal 0 1 0
    outer loop
      vertex 195.1 50 15
      vertex 191.108 50 14.0888
      vertex 191.108 50 15.9112
    endloop
  endfacet
  facet normal 0 1 -0
    outer loop
      vertex 194.309 50 13.3582
      vertex 191.108 50 14.0888
      vertex 195.1 50 15
    endloop
  endfacet
  facet normal 0 1 0
    outer loop
      vertex 191.108 50 14.0888
      vertex 194.309 50 13.3582
      vertex 192.533 50 12.9527
    endloop
  endfacet
  facet normal -0.900969 0 -0.433883
    outer loop
      vertex 32.1 50 15
      vertex 31.3093 70 16.6418
      vertex 32.1 70 15
    endloop
  endfacet
  facet normal -0.900969 -0 -0.433883
    outer loop
      vertex 31.3093 70 16.6418
      vertex 32.1 50 15
      vertex 31.3093 50 16.6418
    endloop
  endfacet
  facet normal -0.222521 0 -0.974928
    outer loop
      vertex 29.5327 50 17.0473
      vertex 31.3093 70 16.6418
      vertex 31.3093 50 16.6418
    endloop
  endfacet
  facet normal -0.222521 0 -0.974928
    outer loop
      vertex 31.3093 70 16.6418
      vertex 29.5327 50 17.0473
      vertex 29.5327 70 17.0473
    endloop
  endfacet
  facet normal 1 -0 0
    outer loop
      vertex 28.108 50 15.9112
      vertex 28.108 70 14.0888
      vertex 28.108 70 15.9112
    endloop
  endfacet
  facet normal 1 0 0
    outer loop
      vertex 28.108 70 14.0888
      vertex 28.108 50 15.9112
      vertex 28.108 50 14.0888
    endloop
  endfacet
  facet normal 0.623489 0 -0.781832
    outer loop
      vertex 28.108 50 15.9112
      vertex 29.5327 70 17.0473
      vertex 29.5327 50 17.0473
    endloop
  endfacet
  facet normal 0.623489 0 -0.781832
    outer loop
      vertex 29.5327 70 17.0473
      vertex 28.108 50 15.9112
      vertex 28.108 70 15.9112
    endloop
  endfacet
  facet normal 0 1 0
    outer loop
      vertex 31.3093 50 16.6418
      vertex 28.108 50 15.9112
      vertex 29.5327 50 17.0473
    endloop
  endfacet
  facet normal 0 1 0
    outer loop
      vertex 32.1 50 15
      vertex 28.108 50 15.9112
      vertex 31.3093 50 16.6418
    endloop
  endfacet
  facet normal 0 1 0
    outer loop
      vertex 32.1 50 15
      vertex 28.108 50 14.0888
      vertex 28.108 50 15.9112
    endloop
  endfacet
  facet normal 0 1 -0
    outer loop
      vertex 31.3093 50 13.3582
      vertex 28.108 50 14.0888
      vertex 32.1 50 15
    endloop
  endfacet
  facet normal 0 1 0
    outer loop
      vertex 28.108 50 14.0888
      vertex 31.3093 50 13.3582
      vertex 29.5327 50 12.9527
    endloop
  endfacet
  facet normal -0.900969 0 0.433883
    outer loop
      vertex 31.3093 50 13.3582
      vertex 32.1 70 15
      vertex 31.3093 70 13.3582
    endloop
  endfacet
  facet normal -0.900969 0 0.433883
    outer loop
      vertex 32.1 70 15
      vertex 31.3093 50 13.3582
      vertex 32.1 50 15
    endloop
  endfacet
  facet normal 0.623489 0 0.781832
    outer loop
      vertex 28.108 70 14.0888
      vertex 29.5327 50 12.9527
      vertex 29.5327 70 12.9527
    endloop
  endfacet
  facet normal 0.623489 0 0.781832
    outer loop
      vertex 29.5327 50 12.9527
      vertex 28.108 70 14.0888
      vertex 28.108 50 14.0888
    endloop
  endfacet
  facet normal -0.222521 0 0.974928
    outer loop
      vertex 29.5327 70 12.9527
      vertex 31.3093 50 13.3582
      vertex 31.3093 70 13.3582
    endloop
  endfacet
  facet normal -0.222521 0 0.974928
    outer loop
      vertex 31.3093 50 13.3582
      vertex 29.5327 70 12.9527
      vertex 29.5327 50 12.9527
    endloop
  endfacet
endsolid OpenSCAD_Model
